<svg id="Layer_1" data-name="Layer 1" xmlns="http://www.w3.org/2000/svg" viewBox="0 0 427.9 122.04"><defs><style>.cls-1{fill:#ed1c24;}.cls-1,.cls-2{fill-rule:evenodd;}.cls-2,.cls-3{fill:#231f20;}</style></defs><title>niad_logo_bl</title><path class="cls-1" d="M128.59,287.57h70.78c15.55,0,28.3,10.94,28.3,24.41v42.84c-7.27,17.42-24,29.66-43.42,29.66-25.49,0-46.37-21.1-47.23-47.3a50,50,0,0,0-1,9.94c0,27.22,21.82,49.39,48.46,49.39a48.5,48.5,0,0,0,43.2-26.93v15.7c0,13.39-12.74,24.34-28.3,24.34H128.59c-15.55,0-28.3-10.94-28.3-24.34V341.35c7.49-16.85,23.9-28.58,42.91-28.58,26.06,0,47.23,22,47.23,49v.43a51.4,51.4,0,0,0,1.51-12c0-27.22-21.82-49.46-48.46-49.46a48.57,48.57,0,0,0-43.2,27V312C100.3,298.51,113,287.57,128.59,287.57Z" transform="translate(-100.3 -287.57)"/><path class="cls-2" d="M285.34,392.62l3.53-.29a5.8,5.8,0,0,0,1.15,2.88,6,6,0,0,0,2.88,1.8,11.83,11.83,0,0,0,4.32.72,14.89,14.89,0,0,0,3.82-.5,5.66,5.66,0,0,0,2.45-1.44,2.77,2.77,0,0,0,.79-2,2.61,2.61,0,0,0-.79-1.94,6.27,6.27,0,0,0-2.52-1.44c-.79-.22-2.45-.58-5-1.15a30.7,30.7,0,0,1-5.47-1.44,7.22,7.22,0,0,1-3-2.23,4.46,4.46,0,0,1-1-3,5.17,5.17,0,0,1,1.22-3.38,7.64,7.64,0,0,1,3.53-2.38,17.14,17.14,0,0,1,5.26-.79,16.31,16.31,0,0,1,5.54.86,7.65,7.65,0,0,1,3.67,2.52,6.77,6.77,0,0,1,1.37,3.74l-3.53.22a4.5,4.5,0,0,0-2-3.38,8.34,8.34,0,0,0-4.9-1.15,9.5,9.5,0,0,0-5,1,3,3,0,0,0-1.58,2.52,2.44,2.44,0,0,0,1.08,2.09c.72.58,2.66,1.15,5.69,1.73a41.66,41.66,0,0,1,6.26,1.51,8.25,8.25,0,0,1,3.6,2.38,5.43,5.43,0,0,1,1.22,3.38,5.48,5.48,0,0,1-1.3,3.53,8.43,8.43,0,0,1-3.67,2.59,14.79,14.79,0,0,1-5.47.94,18.67,18.67,0,0,1-6.48-.94,9.49,9.49,0,0,1-4.1-2.81A6.75,6.75,0,0,1,285.34,392.62Z" transform="translate(-100.3 -287.57)"/><path class="cls-2" d="M312.41,406.73,312,404a7.52,7.52,0,0,0,2,.29,4.56,4.56,0,0,0,1.87-.36,4.39,4.39,0,0,0,1.15-.86,16.77,16.77,0,0,0,1-2.16,6.84,6.84,0,0,1,.36-.72L310.54,383h3.74L318.6,393a35.86,35.86,0,0,1,1.51,3.89c.36-1.22.87-2.52,1.37-3.82l4.46-10h3.46l-7.85,17.35a22.2,22.2,0,0,1-1.94,4,5.77,5.77,0,0,1-2.09,2.09,6.87,6.87,0,0,1-5.11.29Z" transform="translate(-100.3 -287.57)"/><path class="cls-2" d="M331,395.06l3.46-.43a3.68,3.68,0,0,0,1.58,2.59,6.67,6.67,0,0,0,3.75.94,5.92,5.92,0,0,0,3.53-.86,2.16,2.16,0,0,0,1.15-1.8,1.73,1.73,0,0,0-1-1.58,17.17,17.17,0,0,0-3.6-1,36.12,36.12,0,0,1-5.26-1.37,5.17,5.17,0,0,1-2.3-1.66,3.8,3.8,0,0,1-.72-2.3,3.58,3.58,0,0,1,.65-2.09,4.08,4.08,0,0,1,1.66-1.66,7.22,7.22,0,0,1,2.23-.86,13.4,13.4,0,0,1,3-.36,15.16,15.16,0,0,1,4.25.58,7,7,0,0,1,2.74,1.58,6,6,0,0,1,1.15,2.66l-3.38.43a3,3,0,0,0-1.37-2.09,5.58,5.58,0,0,0-3.17-.72,6.49,6.49,0,0,0-3.38.65,1.73,1.73,0,0,0-1,1.51,1.59,1.59,0,0,0,.43,1.08,3.61,3.61,0,0,0,1.3.72c.36.14,1.37.36,3.1.79,2.45.5,4.17,1,5.18,1.3a4.68,4.68,0,0,1,2.23,1.58,3.51,3.51,0,0,1,.86,2.45,4.39,4.39,0,0,1-1,2.66,6.37,6.37,0,0,1-3,2,11.83,11.83,0,0,1-4.32.72,11,11,0,0,1-6.12-1.44A6.15,6.15,0,0,1,331,395.06Z" transform="translate(-100.3 -287.57)"/><path class="cls-2" d="M359.78,397.51l.5,2.59a18.88,18.88,0,0,1-2.59.29,7.54,7.54,0,0,1-3-.5,3.15,3.15,0,0,1-1.51-1.37,8.12,8.12,0,0,1-.43-3.31v-9.94h-2.52V383h2.52v-4.25l3.53-1.8v6h3.46v2.23h-3.46v10.08a3.82,3.82,0,0,0,.14,1.51,2.18,2.18,0,0,0,.58.58,2.86,2.86,0,0,0,1.22.22C358.63,397.66,359.14,397.58,359.78,397.51Z" transform="translate(-100.3 -287.57)"/><path class="cls-2" d="M377.28,394.7l3.6.36a7.57,7.57,0,0,1-3.17,4,10.93,10.93,0,0,1-5.83,1.44h-.29v-2.45a.43.43,0,0,0,.29.07,5.72,5.72,0,0,0,3.24-.86,5.2,5.2,0,0,0,2.16-2.59Zm-5.69-12.1h.07a9.52,9.52,0,0,1,6.7,2.38,8.27,8.27,0,0,1,2.66,6.62v.72h-9.43V390h5.76a5.2,5.2,0,0,0-1.37-3.24,5.6,5.6,0,0,0-4.32-1.66h-.07Zm0,17.93a10.91,10.91,0,0,1-6.91-2.3,8.3,8.3,0,0,1-2.66-6.48,8.47,8.47,0,0,1,2.74-6.7,9.81,9.81,0,0,1,6.84-2.45v2.45a6.09,6.09,0,0,0-4,1.3,5.14,5.14,0,0,0-1.8,3.6h5.76v2.38h-5.9a5.54,5.54,0,0,0,1.87,4.32,6,6,0,0,0,4,1.44Z" transform="translate(-100.3 -287.57)"/><path class="cls-2" d="M385.27,400.1V383h3.1v2.38a6.63,6.63,0,0,1,2.59-2,8.6,8.6,0,0,1,3.67-.79,8.24,8.24,0,0,1,3.74.79,5.18,5.18,0,0,1,2.09,2.23,7.71,7.71,0,0,1,6.34-3,7,7,0,0,1,4.68,1.44,5.49,5.49,0,0,1,1.66,4.39V400.1h-3.46V389.38a6.88,6.88,0,0,0-.36-2.52,2.52,2.52,0,0,0-1.22-1.22,4.71,4.71,0,0,0-2.09-.5,5.44,5.44,0,0,0-3.6,1.22,4.85,4.85,0,0,0-1.44,3.89v9.86h-3.46V389a4.17,4.17,0,0,0-.86-2.88,3.59,3.59,0,0,0-2.81-1,6.12,6.12,0,0,0-2.74.65,4,4,0,0,0-1.8,1.94,9.08,9.08,0,0,0-.58,3.6v8.78Z" transform="translate(-100.3 -287.57)"/><path class="cls-2" d="M417,395.06l3.38-.43a4,4,0,0,0,1.66,2.59,6.57,6.57,0,0,0,3.67.94,6,6,0,0,0,3.6-.86,2.16,2.16,0,0,0,1.15-1.8,1.73,1.73,0,0,0-1-1.58,17.21,17.21,0,0,0-3.6-1,40.91,40.91,0,0,1-5.33-1.37,5.35,5.35,0,0,1-2.23-1.66,3.81,3.81,0,0,1-.72-2.3,3.52,3.52,0,0,1,.58-2.09,4.76,4.76,0,0,1,1.73-1.66,7.23,7.23,0,0,1,2.23-.86,13.39,13.39,0,0,1,3-.36,15.16,15.16,0,0,1,4.25.58,6.22,6.22,0,0,1,2.66,1.58,6.07,6.07,0,0,1,1.22,2.66l-3.38.43a3.28,3.28,0,0,0-1.37-2.09,5.59,5.59,0,0,0-3.17-.72,6.49,6.49,0,0,0-3.38.65,1.82,1.82,0,0,0-1.08,1.51,1.59,1.59,0,0,0,.43,1.08,3.42,3.42,0,0,0,1.37.72c.36.14,1.37.36,3.1.79,2.45.5,4.18,1,5.11,1.3a4.9,4.9,0,0,1,2.3,1.58,3.51,3.51,0,0,1,.86,2.45,4.39,4.39,0,0,1-1,2.66,6.36,6.36,0,0,1-3,2,11.84,11.84,0,0,1-4.32.72,10.81,10.81,0,0,1-6.12-1.44A5.91,5.91,0,0,1,417,395.06Z" transform="translate(-100.3 -287.57)"/><rect class="cls-3" x="349.92" y="88.92" width="3.82" height="23.62"/><path class="cls-2" d="M460.15,400.1V383h3.17v2.45a7.75,7.75,0,0,1,6.55-2.88,10.11,10.11,0,0,1,3.38.58,5.36,5.36,0,0,1,2.38,1.44,6.1,6.1,0,0,1,1.08,2.16,13.16,13.16,0,0,1,.22,2.88V400.1H473.4V389.74a6.38,6.38,0,0,0-.43-2.66,2.69,2.69,0,0,0-1.44-1.37,4.83,4.83,0,0,0-2.37-.58,6.41,6.41,0,0,0-3.89,1.22c-1.08.79-1.58,2.23-1.58,4.46v9.29Z" transform="translate(-100.3 -287.57)"/><path class="cls-2" d="M495.65,393.91l3.46.36a7.31,7.31,0,0,1-2.88,4.61,10.86,10.86,0,0,1-12.45-.65,8.3,8.3,0,0,1-2.59-6.55,10.66,10.66,0,0,1,1.08-4.9,7.08,7.08,0,0,1,3.38-3.1,11.32,11.32,0,0,1,4.9-1.08A9.64,9.64,0,0,1,496,384a6.16,6.16,0,0,1,2.74,4l-3.38.43a4.19,4.19,0,0,0-1.73-2.59,4.94,4.94,0,0,0-3-.86,6,6,0,0,0-4.25,1.51c-1.15,1.08-1.66,2.74-1.66,5s.5,4,1.58,5a5.71,5.71,0,0,0,4.1,1.58,5.5,5.5,0,0,0,3.46-1.08A4.61,4.61,0,0,0,495.65,393.91Z" transform="translate(-100.3 -287.57)"/><rect class="cls-3" x="402.77" y="109.22" width="3.96" height="3.31"/><path class="cls-2" d="M241.13,292h20.81l46.94,53.28v-41c0-4.39-.58-7.13-1.58-8.21-1.37-1.44-3.6-2.16-6.55-2.16h-2.66V292h26.64v1.94H322c-3.24,0-5.54.94-6.91,2.74-.79,1.08-1.22,3.67-1.22,7.63V364.1h-2l-50.62-57.17v43.7q0,6.59,1.51,8.21c1.44,1.44,3.67,2.16,6.62,2.16h2.74V363H245.38V361H248c3.24,0,5.62-.86,7-2.74.79-1.08,1.22-3.6,1.22-7.63V301.25a36.74,36.74,0,0,0-5.11-4.75,20.13,20.13,0,0,0-5-2.16,20.9,20.9,0,0,0-5-.43Z" transform="translate(-100.3 -287.57)"/><path class="cls-2" d="M362.16,361V363h-32.9V361H332c3.17,0,5.47-.79,6.91-2.52.87-1.15,1.37-3.82,1.37-8.06V304.49c0-3.6-.29-6-.79-7.06a4.75,4.75,0,0,0-2.3-2.3A11.91,11.91,0,0,0,332,293.9h-2.74V292h32.9v1.94h-2.74c-3.17,0-5.47.86-6.91,2.52-.94,1.15-1.37,3.82-1.37,8.06v45.94c0,3.6.22,6,.72,7.13a4.81,4.81,0,0,0,2.38,2.23,11.45,11.45,0,0,0,5.18,1.22Z" transform="translate(-100.3 -287.57)"/><path class="cls-2" d="M418.1,339.19H403.27V335.3h13.25l-13-28.66-.22.36V295.27l2.3-4.9h1.94l26.79,59c2.16,4.75,4.1,7.85,5.83,9.22a12.39,12.39,0,0,0,7.34,2.38V363H417.17V361c3-.14,5.11-.58,6.19-1.37a3.62,3.62,0,0,0,1.66-3c0-1.51-.79-4-2.3-7.27Zm-14.83,0h-14.9l-5.26,11.23c-1.3,2.74-1.94,4.75-1.94,6.19a3.39,3.39,0,0,0,1.73,2.81c1.08.86,3.46,1.37,7.2,1.58V363H365.9V361c3.24-.5,5.26-1.15,6.26-2,1.87-1.66,4-5.11,6.34-10.22l24.77-53.5V307L390.1,335.3h13.18Z" transform="translate(-100.3 -287.57)"/><path class="cls-2" d="M494,292.46a52,52,0,0,1,14.26,3.1,30.91,30.91,0,0,1,14.47,12,35.7,35.7,0,0,1,5.47,19.51c0,9.86-3.24,18.14-9.79,24.77q-8.64,8.75-24.41,10.58v-4.32a29.87,29.87,0,0,0,12.6-7.34c5.76-5.69,8.64-13.46,8.64-23.18s-2.88-17.5-8.64-23.18a28.89,28.89,0,0,0-12.6-7.27ZM450.79,363V361h2.88c3.24,0,5.54-.94,6.91-2.88.79-1.15,1.22-3.74,1.22-7.7V304.49c0-4.39-.5-7.2-1.58-8.28-1.44-1.51-3.67-2.3-6.55-2.3h-2.88V292H482c4.39,0,8.35.14,12,.5v4.68a37.67,37.67,0,0,0-9.65-1.22,52.36,52.36,0,0,0-11.66,1.51v60.41a60.27,60.27,0,0,0,12.1,1.44,34.77,34.77,0,0,0,9.22-1.15v4.32a69.87,69.87,0,0,1-8.86.5Z" transform="translate(-100.3 -287.57)"/></svg>