<svg xmlns="http://www.w3.org/2000/svg" width="150" height="150" viewBox="0 0 150 150"><title>icon-support</title><path d="M141.59,112.89c-4.43-3.61-8.61-7-12.73-10.44a2.3,2.3,0,0,1-.5-1.59q0-18.23,0-36.47c0-6.45-.06-12.9,0-19.35A7.5,7.5,0,0,0,121,37.6c-30.71,0-61.43,0-92.14-.07a7.24,7.24,0,0,0-7.43,7.38q0,32.92,0,65.83A7.26,7.26,0,0,0,29,118q29.37,0,58.74,0a2.76,2.76,0,0,1,2.43,1.17c3,3.74,6,7.42,9,11.13.23.28.43.58.76,1-.56,0-1,.06-1.35.06q-34.93,0-69.87,0A20.6,20.6,0,0,1,8.08,110.64q0-39.74,0-79.47A20.59,20.59,0,0,1,28.67,10.52q46.28,0,92.56,0a20.56,20.56,0,0,1,20.44,20.24c.07,26.77,0,53.54,0,80.31C141.69,111.56,141.64,112.05,141.59,112.89ZM34.79,24a6.68,6.68,0,1,0-6.87,6.55A6.7,6.7,0,0,0,34.79,24Zm13.42,6.56A6.67,6.67,0,1,0,41.49,24,6.7,6.7,0,0,0,48.22,30.55Z" fill="#b3b3b3"/><path d="M68.9,53.26a26.62,26.62,0,0,1,29.89,11A27.23,27.23,0,0,1,103,82.3a12.89,12.89,0,0,0,5,11.86q14.33,11.6,28.6,23.28c6.48,5.28,6.86,12.89.95,18.83-1.34,1.35-2.68,2.7-4,4-5.58,5.48-13.32,5.08-18.27-1q-11.84-14.49-23.63-29A12.73,12.73,0,0,0,80,105.39C69.76,106.31,61.28,103,55,94.84c-5.3-7-6.49-14.86-4.29-23.6.89,1,1.63,1.8,2.34,2.62q7.11,8.2,14.22,16.41c2.91,3.34,6.65,3.48,9.79.36q5.52-5.5,11-11c3.2-3.21,3.09-6.93-.31-9.88Q78.94,62,70,54.31C69.7,54,69.38,53.7,68.9,53.26Zm64,75.38a6.67,6.67,0,1,0-6.56,6.69A6.65,6.65,0,0,0,132.9,128.65Z" fill="#ec1c24"/></svg>