<svg xmlns="http://www.w3.org/2000/svg" width="138.55" height="161.93" viewBox="0 0 138.55 161.93"><title>stopwatch-with-NIAD</title><path d="M36.66,20.74H34.17L30.74,10.46,27.33,20.74H24.67L20.34,5.34h2.93l3.08,10.94L29.77,5.34h2L35.3,16,38.25,5.34h2.93Z" fill="#0c0"/><path d="M42.47,8.06V5.34H45.2V8.06Zm0,12.67v-11H45.2v11Z" fill="#0c0"/><path d="M53.29,21h-2a2.75,2.75,0,0,1-2.95-2.88V12H46.82l.24-2.25h1.32V7.32L51.11,7V9.74h2.42V12H51.11v5c0,1.67.13,1.76,1.67,1.76h.75Z" fill="#0c0"/><path d="M62.27,20.74V14.82c0-2-.64-3-2.18-3a2.55,2.55,0,0,0-2.07.95v8H55.29V4.24H58v6.07a4.36,4.36,0,0,1,2.29-.75c3.43,0,4.69,2.16,4.69,5.26v5.92Z" fill="#0c0"/><path d="M82.66,20.74l-7-10.56V20.74H72.8V5.34h2.77l6.58,9.95V5.34H85v15.4Z" fill="#0c0"/><path d="M88.36,20.74V5.34h2.82v15.4Z" fill="#0c0"/><path d="M103.63,20.74,102.31,17H97.18l-1.32,3.72H92.93l5.48-15.4h2.66l5.48,15.4Zm-3.89-11-1.58,4.51h3.19Z" fill="#0c0"/><path d="M108.31,20.74V5.34h5.76c4.4,0,7.59,2.86,7.59,7.7s-3.19,7.7-7.59,7.7ZM111.13,8V18h2.95c3,0,4.51-1.92,4.51-5s-1.52-5-4.51-5Z" fill="#0c0"/><path d="M71,76v36l31.45-17.63S92.75,76,71,76Z" fill="#0c0"/><path d="M71.33,73.58A38.46,38.46,0,1,1,32.87,112,38.5,38.5,0,0,1,71.33,73.58m0-8.24A46.7,46.7,0,1,0,118,112a46.7,46.7,0,0,0-46.7-46.7Z"/><circle cx="71.33" cy="112.04" r="3.24"/><polygon points="96.42 97.61 72.35 113.82 70.3 110.25 96.42 97.61"/><rect x="70.56" y="76.2" width="2" height="9"/><rect x="70.56" y="138.2" width="2" height="9"/><rect x="97.56" y="111.2" width="9" height="2"/><rect x="36.56" y="111.2" width="9" height="2"/><rect x="42.54" y="92.32" width="0.82" height="5.54" transform="translate(-60.77 83.71) rotate(-59.43)"/><rect x="99.38" y="126.22" width="0.8" height="5.28" transform="translate(-61.92 149.23) rotate(-59.43)"/><rect x="85.39" y="83.18" width="5.54" height="0.82" transform="translate(-28.62 117.08) rotate(-59.48)"/><rect x="51.75" y="140.02" width="5.28" height="0.8" transform="translate(-94.17 115.83) rotate(-59.43)"/><rect x="97.26" y="95.31" width="5.54" height="0.82" transform="translate(-34.24 61.95) rotate(-29.62)"/><rect x="39.83" y="127.83" width="5.28" height="0.8" transform="translate(-57.87 37.79) rotate(-29.65)"/><rect x="87.39" y="137.74" width="0.82" height="5.54" transform="translate(-58.7 63.11) rotate(-30.15)"/><rect x="54.35" y="80.62" width="0.8" height="5.28" transform="translate(-34.42 38.77) rotate(-30.15)"/><rect x="64.47" y="49.24" width="14.41" height="5.08"/><rect x="68.09" y="54.32" width="6.48" height="16.88"/><path d="M71.33,38.76A10.48,10.48,0,1,1,60.85,49.24,10.49,10.49,0,0,1,71.33,38.76m0-4.94A15.42,15.42,0,1,0,86.75,49.24,15.42,15.42,0,0,0,71.33,33.82Z"/><rect x="28.84" y="58.91" width="13.32" height="16.47" transform="translate(-33.72 35.89) rotate(-37.84)"/><rect x="100.15" y="58.91" width="13.32" height="16.47" transform="translate(149.97 185.69) rotate(-142.16)"/></svg>