<svg xmlns="http://www.w3.org/2000/svg" xmlns:xlink="http://www.w3.org/1999/xlink" width="378.05" height="416.25" viewBox="0 0 378.05 416.25"><defs><linearGradient id="a" x1="189.95" y1="151.98" x2="189.95" y2="216.74" gradientUnits="userSpaceOnUse"><stop offset="0" stop-color="#8c8c8d"/><stop offset="1" stop-color="#8c8c8d" stop-opacity="0"/></linearGradient><linearGradient id="b" x1="271.03" y1="186.25" x2="271.03" y2="223.16" xlink:href="#a"/><linearGradient id="c" x1="112.57" y1="182.12" x2="112.57" y2="222.38" xlink:href="#a"/></defs><title>diagram-niad-capabilities</title><rect x="45.61" y="403.89" width="304.96" height="12.36" rx="6.18" ry="6.18" fill="#d9d9d9"/><rect x="167.48" y="373.21" width="43.09" height="32.85" opacity="0.9"/><path d="M158.45,406.06h61.14a3.08,3.08,0,0,1,3.08,3.08v0a3.08,3.08,0,0,1-3.08,3.08H157a1.63,1.63,0,0,1-1.63-1.63v-1.45A3.08,3.08,0,0,1,158.45,406.06Z" fill="#333"/><path d="M83.51,231.66h211a2.54,2.54,0,0,1,2.54,2.54V382.11a2.55,2.55,0,0,1-2.55,2.55h-211A2.54,2.54,0,0,1,81,382.11V234.2A2.54,2.54,0,0,1,83.51,231.66Z" fill="#333"/><rect x="85.93" y="239.68" width="205.06" height="132.61" fill="#e6e6e6"/><path d="M264.82,283.28h78.59a7.17,7.17,0,0,1,7.17,7.17v114.6a7.17,7.17,0,0,1-7.17,7.17H264.82a7.17,7.17,0,0,1-7.17-7.17V290.45A7.16,7.16,0,0,1,264.82,283.28Z" fill="#333"/><rect x="264.41" y="296.38" width="79.41" height="102.74" fill="#e6e6e6"/><path d="M312.73,290.65a1.64,1.64,0,0,1-1.64,1.64h-8.19a1.64,1.64,0,0,1-1.64-1.64h0a1.64,1.64,0,0,1,1.64-1.64h8.19a1.64,1.64,0,0,1,1.64,1.64Z" opacity="0.9"/><circle cx="297.46" cy="290.65" r="1.51" opacity="0.9"/><circle cx="303.86" cy="404.97" r="4.27" opacity="0.9"/><path d="M264.82,283.28h78.59a7.17,7.17,0,0,1,7.17,7.17v114.6a7.17,7.17,0,0,1-7.17,7.17H264.82a7.17,7.17,0,0,1-7.17-7.17V290.45A7.16,7.16,0,0,1,264.82,283.28Z" fill="none" stroke="#000" stroke-miterlimit="10" stroke-width="0.97" opacity="0.9"/><rect x="46.24" y="326.97" width="45.46" height="85.25" rx="4.74" ry="4.74" fill="#333"/><rect x="50.45" y="332.61" width="37.13" height="69.53" fill="#e6e6e6"/><circle cx="68.96" cy="407.17" r="3.66" opacity="0.9"/><circle cx="52.44" cy="329.86" r="1.47" fill="#333"/><rect x="46.24" y="326.97" width="45.46" height="85.25" rx="4.74" ry="4.74" fill="none" stroke="#000" stroke-miterlimit="10" stroke-width="0.97" opacity="0.9"/><path d="M63.15,351.86H74.91c2.58,0,4.7,1.82,4.7,4.05V363A7.88,7.88,0,0,1,72.4,368a8,8,0,0,1-7.85-7.86,8.31,8.31,0,0,0-.17,1.65,8.15,8.15,0,0,0,8,8.21,8.06,8.06,0,0,0,7.18-4.47v2.61c0,2.22-2.12,4-4.7,4H63.15c-2.58,0-4.7-1.82-4.7-4v-7.3a7.85,7.85,0,0,1,7.13-4.75,8,8,0,0,1,7.85,8.13v.07a8.54,8.54,0,0,0,.25-2,8.16,8.16,0,0,0-8-8.22,8.07,8.07,0,0,0-7.18,4.49v-2.61C58.45,353.68,60.57,351.86,63.15,351.86Z" fill="#ec1c24" fill-rule="evenodd"/><path d="M61.54,381.87l.25,0a.41.41,0,0,0,.08.2.42.42,0,0,0,.2.13.84.84,0,0,0,.31.05,1.05,1.05,0,0,0,.27,0,.4.4,0,0,0,.17-.1.2.2,0,0,0,.06-.14.18.18,0,0,0-.06-.14.44.44,0,0,0-.18-.1l-.36-.08a2.17,2.17,0,0,1-.39-.1.51.51,0,0,1-.21-.16.32.32,0,0,1-.07-.21.37.37,0,0,1,.09-.24.54.54,0,0,1,.25-.17,1.21,1.21,0,0,1,.37-.06,1.15,1.15,0,0,1,.39.06.54.54,0,0,1,.26.18.48.48,0,0,1,.1.26l-.25,0a.32.32,0,0,0-.14-.24.59.59,0,0,0-.35-.08A.67.67,0,0,0,62,381a.21.21,0,0,0-.11.18.17.17,0,0,0,.08.15,1.16,1.16,0,0,0,.4.12,3,3,0,0,1,.44.11.58.58,0,0,1,.25.17.38.38,0,0,1,.09.24.39.39,0,0,1-.09.25.6.6,0,0,1-.26.18,1,1,0,0,1-.39.07,1.32,1.32,0,0,1-.46-.07.67.67,0,0,1-.29-.2A.48.48,0,0,1,61.54,381.87Z" fill-rule="evenodd" opacity="0.9"/><path d="M63.45,382.87l0-.19.14,0a.32.32,0,0,0,.13,0l.08-.06a1.19,1.19,0,0,0,.07-.15l0-.05-.55-1.21h.26l.31.7a2.54,2.54,0,0,1,.11.27c0-.09.06-.18.1-.27l.32-.71h.24l-.56,1.23a1.57,1.57,0,0,1-.14.28.41.41,0,0,1-.15.15.49.49,0,0,1-.36,0Z" fill-rule="evenodd" opacity="0.9"/><path d="M64.77,382l.24,0a.26.26,0,0,0,.11.18.47.47,0,0,0,.26.07.42.42,0,0,0,.25-.06.15.15,0,0,0,.08-.13.12.12,0,0,0-.07-.11,1.21,1.21,0,0,0-.25-.07,2.55,2.55,0,0,1-.37-.1.37.37,0,0,1-.16-.12.27.27,0,0,1-.05-.16.25.25,0,0,1,0-.15.29.29,0,0,1,.12-.12.51.51,0,0,1,.16-.06l.21,0a1.07,1.07,0,0,1,.3,0,.5.5,0,0,1,.19.11.42.42,0,0,1,.08.19l-.24,0a.21.21,0,0,0-.1-.15.39.39,0,0,0-.22-.05.46.46,0,0,0-.24,0,.12.12,0,0,0-.07.11.11.11,0,0,0,0,.08l.09.05.22.06.37.09a.33.33,0,0,1,.16.11A.25.25,0,0,1,66,382a.31.31,0,0,1-.07.19.45.45,0,0,1-.21.14.84.84,0,0,1-.31.05.78.78,0,0,1-.43-.1A.44.44,0,0,1,64.77,382Z" fill-rule="evenodd" opacity="0.9"/><path d="M66.8,382.22l0,.18-.18,0a.53.53,0,0,1-.21,0,.22.22,0,0,1-.11-.1.57.57,0,0,1,0-.23v-.7h-.18v-.16h.18v-.3l.25-.13v.43h.24v.16h-.24v.71a.27.27,0,0,0,0,.11l0,0,.09,0Z" fill-rule="evenodd" opacity="0.9"/><path d="M68,382l.25,0a.54.54,0,0,1-.22.29.77.77,0,0,1-.41.1h0v-.17h0a.4.4,0,0,0,.23-.06A.37.37,0,0,0,68,382Zm-.4-.86h0a.67.67,0,0,1,.47.17.58.58,0,0,1,.19.47v.05h-.67v-.17H68a.37.37,0,0,0-.1-.23.4.4,0,0,0-.31-.12h0Zm0,1.27a.77.77,0,0,1-.49-.16.59.59,0,0,1-.19-.46.6.6,0,0,1,.19-.47.69.69,0,0,1,.48-.17v.17a.43.43,0,0,0-.28.09.36.36,0,0,0-.13.25h.41v.17h-.42a.39.39,0,0,0,.13.31.42.42,0,0,0,.29.1Z" fill-rule="evenodd" opacity="0.9"/><path d="M68.61,382.4v-1.21h.22v.17a.47.47,0,0,1,.18-.14.61.61,0,0,1,.26-.06.58.58,0,0,1,.26.06.37.37,0,0,1,.15.16.55.55,0,0,1,.45-.21.49.49,0,0,1,.33.1.39.39,0,0,1,.12.31v.82h-.24v-.76a.49.49,0,0,0,0-.18.18.18,0,0,0-.09-.09.33.33,0,0,0-.15,0,.39.39,0,0,0-.25.09.34.34,0,0,0-.1.27v.7h-.24v-.78a.3.3,0,0,0-.06-.2.25.25,0,0,0-.2-.07.43.43,0,0,0-.19,0,.28.28,0,0,0-.13.14.64.64,0,0,0,0,.25v.62Z" fill-rule="evenodd" opacity="0.9"/><path d="M70.85,382l.24,0a.28.28,0,0,0,.12.18.46.46,0,0,0,.26.07.43.43,0,0,0,.25-.06.15.15,0,0,0,.08-.13.12.12,0,0,0-.07-.11,1.22,1.22,0,0,0-.25-.07,2.89,2.89,0,0,1-.38-.1.38.38,0,0,1-.16-.12.27.27,0,0,1-.05-.16.25.25,0,0,1,0-.15.34.34,0,0,1,.12-.12.51.51,0,0,1,.16-.06l.21,0a1.07,1.07,0,0,1,.3,0,.44.44,0,0,1,.19.11.43.43,0,0,1,.09.19l-.24,0a.23.23,0,0,0-.1-.15.4.4,0,0,0-.22-.05.46.46,0,0,0-.24,0,.13.13,0,0,0-.08.11.11.11,0,0,0,0,.08l.1.05.22.06.36.09a.35.35,0,0,1,.16.11.25.25,0,0,1,.06.17.31.31,0,0,1-.07.19.45.45,0,0,1-.21.14.84.84,0,0,1-.31.05.76.76,0,0,1-.43-.1A.42.42,0,0,1,70.85,382Z" fill-rule="evenodd" opacity="0.9"/><rect x="73.2" y="380.73" width="0.27" height="1.67" opacity="0.9"/><path d="M73.9,382.4v-1.21h.22v.17a.55.55,0,0,1,.46-.2.71.71,0,0,1,.24,0,.38.38,0,0,1,.17.1.43.43,0,0,1,.08.15.93.93,0,0,1,0,.2v.74h-.25v-.73a.45.45,0,0,0,0-.19.19.19,0,0,0-.1-.1.34.34,0,0,0-.17,0,.45.45,0,0,0-.27.09.36.36,0,0,0-.11.32v.66Z" fill-rule="evenodd" opacity="0.9"/><path d="M76.41,382l.24,0a.52.52,0,0,1-.2.33.77.77,0,0,1-.88,0,.59.59,0,0,1-.18-.46.75.75,0,0,1,.08-.35.5.5,0,0,1,.24-.22.8.8,0,0,1,.35-.08.68.68,0,0,1,.39.1.44.44,0,0,1,.19.29l-.24,0a.3.3,0,0,0-.12-.18.35.35,0,0,0-.21-.06.43.43,0,0,0-.3.11.6.6,0,0,0,0,.71.4.4,0,0,0,.29.11.39.39,0,0,0,.24-.08A.33.33,0,0,0,76.41,382Z" fill-rule="evenodd" opacity="0.9"/><rect x="76.94" y="382.17" width="0.28" height="0.23" opacity="0.9"/><path d="M58.41,374.75h1.47l3.32,3.77v-2.9a1,1,0,0,0-.11-.58.62.62,0,0,0-.46-.15h-.19v-.14h1.88v.14h-.19a.58.58,0,0,0-.49.19,1.08,1.08,0,0,0-.09.54v4.23h-.14l-3.58-4v3.09a1,1,0,0,0,.11.58.64.64,0,0,0,.47.15h.19v.14H58.71v-.14h.19a.57.57,0,0,0,.49-.19,1.06,1.06,0,0,0,.09-.54v-3.49a2.6,2.6,0,0,0-.36-.34,1.42,1.42,0,0,0-.36-.15,1.48,1.48,0,0,0-.35,0Z" fill-rule="evenodd" opacity="0.9"/><path d="M67,379.64v.14H64.65v-.14h.19a.6.6,0,0,0,.49-.18,1.09,1.09,0,0,0,.1-.57v-3.25a1.43,1.43,0,0,0-.06-.5.34.34,0,0,0-.16-.16.84.84,0,0,0-.37-.09h-.19v-.14H67v.14h-.19a.62.62,0,0,0-.49.18,1,1,0,0,0-.1.57v3.25a1.53,1.53,0,0,0,.05.5.34.34,0,0,0,.17.16.81.81,0,0,0,.37.09Z" fill-rule="evenodd" opacity="0.9"/><path d="M70.93,378.09h-1v-.27h.94l-.92-2,0,0V375l.16-.35h.14l1.89,4.18a1.87,1.87,0,0,0,.41.65.88.88,0,0,0,.52.17v.14H70.86v-.14a.88.88,0,0,0,.44-.1.26.26,0,0,0,.12-.21,1.47,1.47,0,0,0-.16-.51Zm-1,0H68.83l-.37.79a1.14,1.14,0,0,0-.14.44.24.24,0,0,0,.12.2,1,1,0,0,0,.51.11v.14H67.24v-.14a1,1,0,0,0,.44-.14,2.28,2.28,0,0,0,.45-.72L69.88,375v.83l-.93,2h.93Z" fill-rule="evenodd" opacity="0.9"/><path d="M76.29,374.79a3.68,3.68,0,0,1,1,.22,2.19,2.19,0,0,1,1,.85,2.52,2.52,0,0,1,.39,1.38A2.39,2.39,0,0,1,78,379a2.8,2.8,0,0,1-1.73.75v-.31a2.11,2.11,0,0,0,.89-.52,2.51,2.51,0,0,0,0-3.28,2,2,0,0,0-.89-.51Zm-3.05,5v-.14h.2a.55.55,0,0,0,.49-.2,1.12,1.12,0,0,0,.09-.54v-3.25a1,1,0,0,0-.11-.59.62.62,0,0,0-.46-.16h-.2v-.14h2.21c.31,0,.59,0,.85,0v.33a2.66,2.66,0,0,0-.68-.09,3.7,3.7,0,0,0-.82.11v4.27a4.26,4.26,0,0,0,.86.1,2.46,2.46,0,0,0,.65-.08v.31a4.94,4.94,0,0,1-.63,0Z" fill-rule="evenodd" opacity="0.9"/><path d="M294.43,320.81h20.41c4.49,0,8.16,3.16,8.16,7v12.36a13.68,13.68,0,0,1-12.52,8.56,13.89,13.89,0,0,1-13.62-13.64,14.43,14.43,0,0,0-.29,2.87,14.15,14.15,0,0,0,14,14.25A14,14,0,0,0,323,344.47V349c0,3.86-3.68,7-8.16,7H294.43c-4.49,0-8.16-3.16-8.16-7V336.33a13.63,13.63,0,0,1,12.38-8.24,13.9,13.9,0,0,1,13.62,14.12v.12a14.83,14.83,0,0,0,.44-3.47,14.17,14.17,0,0,0-14-14.27,14,14,0,0,0-12.46,7.79v-4.53C286.27,324,289.95,320.81,294.43,320.81Z" fill="#ec1c24" fill-rule="evenodd"/><path d="M291.63,372.91l.43,0a.71.71,0,0,0,.14.35.74.74,0,0,0,.35.22,1.45,1.45,0,0,0,.53.09,1.83,1.83,0,0,0,.47-.06.7.7,0,0,0,.3-.18.34.34,0,0,0,.1-.25.32.32,0,0,0-.1-.24.77.77,0,0,0-.31-.18l-.62-.14a3.77,3.77,0,0,1-.67-.18.89.89,0,0,1-.37-.27.55.55,0,0,1-.12-.36.63.63,0,0,1,.15-.42.94.94,0,0,1,.43-.29,2.1,2.1,0,0,1,.65-.1,2,2,0,0,1,.68.11.94.94,0,0,1,.45.31.83.83,0,0,1,.17.46l-.43,0a.55.55,0,0,0-.25-.42,1,1,0,0,0-.6-.14,1.17,1.17,0,0,0-.61.12.37.37,0,0,0-.19.31.3.3,0,0,0,.13.26,2,2,0,0,0,.7.21,5.11,5.11,0,0,1,.77.19,1,1,0,0,1,.44.29.67.67,0,0,1,.15.42.67.67,0,0,1-.16.43,1,1,0,0,1-.45.32,1.82,1.82,0,0,1-.67.11,2.29,2.29,0,0,1-.8-.11,1.17,1.17,0,0,1-.5-.34A.83.83,0,0,1,291.63,372.91Z" fill-rule="evenodd" opacity="0.9"/><path d="M295,374.64l-.05-.34a.92.92,0,0,0,.25,0,.56.56,0,0,0,.23,0,.54.54,0,0,0,.14-.11,2.06,2.06,0,0,0,.12-.27l0-.09-1-2.1h.46l.53,1.22a4.4,4.4,0,0,1,.19.48c0-.15.11-.31.17-.47l.55-1.23H297l-1,2.13a2.73,2.73,0,0,1-.24.49.71.71,0,0,1-.26.26.84.84,0,0,1-.63,0Z" fill-rule="evenodd" opacity="0.9"/><path d="M297.23,373.21l.42-.05a.45.45,0,0,0,.19.32.82.82,0,0,0,.46.11.73.73,0,0,0,.43-.11.27.27,0,0,0,.14-.22.21.21,0,0,0-.12-.19,2.11,2.11,0,0,0-.44-.12,4.43,4.43,0,0,1-.65-.17.63.63,0,0,1-.28-.2.47.47,0,0,1-.09-.28.44.44,0,0,1,.08-.26.5.5,0,0,1,.2-.2.89.89,0,0,1,.27-.11,1.65,1.65,0,0,1,.37,0,1.86,1.86,0,0,1,.52.07.86.86,0,0,1,.34.19.74.74,0,0,1,.14.33l-.42.05a.37.37,0,0,0-.17-.26.69.69,0,0,0-.39-.09.8.8,0,0,0-.42.08.21.21,0,0,0-.12.19.19.19,0,0,0,.05.13.44.44,0,0,0,.16.09l.38.1c.3.06.51.12.64.16a.57.57,0,0,1,.27.19.43.43,0,0,1,.11.3.54.54,0,0,1-.12.33.78.78,0,0,1-.36.25,1.45,1.45,0,0,1-.53.09,1.35,1.35,0,0,1-.75-.18A.76.76,0,0,1,297.23,373.21Z" fill-rule="evenodd" opacity="0.9"/><path d="M300.77,373.51l.06.32-.32,0a.93.93,0,0,1-.36-.06.39.39,0,0,1-.19-.17,1,1,0,0,1-.05-.41V372h-.31v-.27h.31v-.52l.43-.22v.74h.42V372h-.42v1.24a.47.47,0,0,0,0,.19l.07.07a.35.35,0,0,0,.15,0Z" fill-rule="evenodd" opacity="0.9"/><path d="M302.92,373.17l.44,0a.93.93,0,0,1-.39.5,1.34,1.34,0,0,1-.72.18h0v-.3h0a.7.7,0,0,0,.4-.11.64.64,0,0,0,.27-.32Zm-.7-1.49h0a1.17,1.17,0,0,1,.82.29,1,1,0,0,1,.33.81v.09h-1.16v-.29h.71a.64.64,0,0,0-.17-.4.69.69,0,0,0-.53-.2h0Zm0,2.2a1.34,1.34,0,0,1-.85-.28,1,1,0,0,1-.33-.8,1,1,0,0,1,.34-.82,1.2,1.2,0,0,1,.84-.3v.3a.75.75,0,0,0-.49.16.63.63,0,0,0-.22.44h.71v.29h-.72a.68.68,0,0,0,.23.53.74.74,0,0,0,.49.18Z" fill-rule="evenodd" opacity="0.9"/><path d="M303.9,373.83v-2.09h.38V372a.81.81,0,0,1,.32-.25,1.06,1.06,0,0,1,.45-.1,1,1,0,0,1,.46.1.64.64,0,0,1,.26.27,1,1,0,0,1,.78-.37.86.86,0,0,1,.57.18.67.67,0,0,1,.2.54v1.43h-.42v-1.32a.85.85,0,0,0,0-.31.31.31,0,0,0-.15-.15.58.58,0,0,0-.26-.06.67.67,0,0,0-.44.15.59.59,0,0,0-.18.48v1.21h-.42v-1.36a.51.51,0,0,0-.11-.35A.44.44,0,0,0,305,372a.75.75,0,0,0-.34.08.48.48,0,0,0-.22.24,1.11,1.11,0,0,0-.07.44v1.08Z" fill-rule="evenodd" opacity="0.9"/><path d="M307.79,373.21l.42-.05a.49.49,0,0,0,.2.32.81.81,0,0,0,.45.11.74.74,0,0,0,.44-.11.27.27,0,0,0,.14-.22.21.21,0,0,0-.12-.19,2.11,2.11,0,0,0-.44-.12,5,5,0,0,1-.65-.17.66.66,0,0,1-.27-.2.47.47,0,0,1-.09-.28.43.43,0,0,1,.07-.26.58.58,0,0,1,.21-.2.89.89,0,0,1,.27-.11,1.64,1.64,0,0,1,.37,0,1.86,1.86,0,0,1,.52.07.76.76,0,0,1,.33.19.75.75,0,0,1,.15.33l-.42.05a.4.4,0,0,0-.17-.26.69.69,0,0,0-.39-.09.8.8,0,0,0-.42.08.22.22,0,0,0-.13.19.19.19,0,0,0,.05.13.42.42,0,0,0,.17.09l.38.1c.3.06.51.12.63.16a.6.6,0,0,1,.28.19.43.43,0,0,1,.11.3.54.54,0,0,1-.12.33.78.78,0,0,1-.36.25,1.45,1.45,0,0,1-.53.09,1.33,1.33,0,0,1-.75-.18A.73.73,0,0,1,307.79,373.21Z" fill-rule="evenodd" opacity="0.9"/><rect x="311.87" y="370.93" width="0.47" height="2.9" opacity="0.9"/><path d="M313.09,373.83v-2.09h.39v.3a1,1,0,0,1,.8-.35,1.24,1.24,0,0,1,.42.07.66.66,0,0,1,.29.18.75.75,0,0,1,.13.27,1.62,1.62,0,0,1,0,.35v1.28h-.43v-1.27a.78.78,0,0,0-.05-.33.33.33,0,0,0-.18-.17.59.59,0,0,0-.29-.07.79.79,0,0,0-.48.15.63.63,0,0,0-.19.55v1.14Z" fill-rule="evenodd" opacity="0.9"/><path d="M317.45,373.07l.42,0a.9.9,0,0,1-.35.57,1.33,1.33,0,0,1-1.53-.08,1,1,0,0,1-.32-.8,1.31,1.31,0,0,1,.13-.6.87.87,0,0,1,.42-.38,1.39,1.39,0,0,1,.6-.13,1.18,1.18,0,0,1,.67.18.76.76,0,0,1,.34.5l-.42.05a.51.51,0,0,0-.21-.32.61.61,0,0,0-.36-.11.74.74,0,0,0-.52.19,1,1,0,0,0,0,1.23.7.7,0,0,0,.5.19.68.68,0,0,0,.42-.13A.57.57,0,0,0,317.45,373.07Z" fill-rule="evenodd" opacity="0.9"/><rect x="318.36" y="373.42" width="0.49" height="0.41" opacity="0.9"/><path d="M286.2,360.55h2.55l5.76,6.54v-5a1.68,1.68,0,0,0-.19-1,1.08,1.08,0,0,0-.8-.27h-.33v-.24h3.27v.24h-.34a1,1,0,0,0-.85.34,1.87,1.87,0,0,0-.15.94v7.35h-.25l-6.21-7v5.37a1.7,1.7,0,0,0,.19,1,1.11,1.11,0,0,0,.81.27H290v.24h-3.28V369h.33a1,1,0,0,0,.86-.34,1.85,1.85,0,0,0,.15-.94v-6.06a4.51,4.51,0,0,0-.63-.58,2.47,2.47,0,0,0-.62-.27,2.57,2.57,0,0,0-.61-.05Z" fill-rule="evenodd" opacity="0.9"/><path d="M301.06,369v.24h-4V369h.34a1,1,0,0,0,.85-.31,1.89,1.89,0,0,0,.17-1v-5.64a2.48,2.48,0,0,0-.1-.87.58.58,0,0,0-.28-.28,1.46,1.46,0,0,0-.64-.15H297v-.24h4v.24h-.34a1.07,1.07,0,0,0-.85.31,1.81,1.81,0,0,0-.17,1v5.64a2.65,2.65,0,0,0,.09.88.59.59,0,0,0,.29.27,1.41,1.41,0,0,0,.64.15Z" fill-rule="evenodd" opacity="0.9"/><path d="M307.93,366.35h-1.82v-.48h1.63l-1.6-3.52,0,0V361l.28-.6h.24l3.29,7.25a3.25,3.25,0,0,0,.72,1.13,1.52,1.52,0,0,0,.9.29v.24h-3.72V369a1.52,1.52,0,0,0,.76-.17.44.44,0,0,0,.2-.36,2.55,2.55,0,0,0-.28-.89Zm-1.82,0h-1.83l-.65,1.38a2,2,0,0,0-.24.76.42.42,0,0,0,.21.34,1.76,1.76,0,0,0,.88.19v.24h-3V369a1.66,1.66,0,0,0,.77-.25,4,4,0,0,0,.78-1.26l3-6.57v1.44l-1.62,3.47h1.62Z" fill-rule="evenodd" opacity="0.9"/><path d="M317.25,360.61A6.39,6.39,0,0,1,319,361a3.8,3.8,0,0,1,1.78,1.48,4.38,4.38,0,0,1,.67,2.4,4.15,4.15,0,0,1-1.2,3,4.85,4.85,0,0,1-3,1.3v-.53a3.67,3.67,0,0,0,1.55-.9,4.35,4.35,0,0,0,0-5.69,3.55,3.55,0,0,0-1.55-.89Zm-5.3,8.65V369h.35a1,1,0,0,0,.85-.35,1.94,1.94,0,0,0,.15-.95v-5.64a1.64,1.64,0,0,0-.19-1,1.07,1.07,0,0,0-.8-.28h-.35v-.24h3.84c.54,0,1,0,1.47.06v.57a4.63,4.63,0,0,0-1.18-.15,6.43,6.43,0,0,0-1.43.19v7.42a7.4,7.4,0,0,0,1.49.18,4.27,4.27,0,0,0,1.13-.14v.53a8.58,8.58,0,0,1-1.09.06Z" fill-rule="evenodd" opacity="0.9"/><circle cx="61.87" cy="139.2" r="60.76" fill="#ececec" stroke="#fff" stroke-miterlimit="10" stroke-width="2.21"/><circle cx="316.18" cy="139.2" r="60.76" fill="#ececec" stroke="#fff" stroke-miterlimit="10" stroke-width="2.21"/><circle cx="189.02" cy="65.38" r="64.27" fill="#ececec" stroke="#fff" stroke-miterlimit="10" stroke-width="2.21"/><polygon points="347.28 125.83 346.29 126.65 348.12 126.65 347.28 125.83" fill="none"/><path d="M294.1,148.6v20.66c0,1.5,2.65,3.23,4.15,3.23h10.48c1.5,0,.37-1.74.37-3.23V147.54l-7.3-3.89Z" fill="#ec1c24"/><path d="M272.1,169.26c0,1.5,3.28,3.23,4.78,3.23h10.48c1.5,0,.75-1.74.75-3.23V151.9l-16,9.65Z" fill="#ec1c24"/><path d="M315.1,169.26c0,1.5,3,3.23,4.52,3.23H330.1c1.5,0,1-1.74,1-3.23v-31.6l-16,13.17Z" fill="#ec1c24"/><path d="M347.61,126.65l-.66-.82-1.53.82-8.32,6.51v36.1c0,1.5,2.4,3.23,3.9,3.23h10.48c1.5,0,1.63-1.74,1.63-3.23V132.51Z" fill="#ec1c24"/><polygon points="272.94 153.9 269.39 147.98 304.53 126.92 316.09 134.02 344.08 109.65 348.62 114.85 316.8 142.56 304.49 134.99 272.94 153.9" opacity="0.9"/><g opacity="0.9"><polygon points="350.85 122.02 357.55 102.5 337.3 106.45 350.85 122.02"/></g><path d="M196.63,76.35a5.67,5.67,0,0,0-1.4-4,12.84,12.84,0,0,0-4.8-2.86q-6.68-2.44-9.92-5.43t-3.24-8.44a11.23,11.23,0,0,1,3.24-8.29,13.93,13.93,0,0,1,8.71-3.81V37.08H194v6.53A12.81,12.81,0,0,1,202.33,48a14.06,14.06,0,0,1,3,9.45l-.09.15h-8.58a8.92,8.92,0,0,0-1.46-5.48,5.38,5.38,0,0,0-7.84-.44,5.91,5.91,0,0,0-1.26,4,5.41,5.41,0,0,0,1.34,3.81,13.63,13.63,0,0,0,4.92,2.88Q199,65,202.18,68t3.21,8.34a11.13,11.13,0,0,1-3.22,8.37,14.23,14.23,0,0,1-8.76,3.7v6h-4.79V88.39a15.54,15.54,0,0,1-9.3-4q-3.67-3.42-3.55-10l.06-.15h8.58q0,4,1.85,5.78A6.59,6.59,0,0,0,191,81.74a5.68,5.68,0,0,0,4.2-1.46A5.31,5.31,0,0,0,196.63,76.35Z" fill="#ec1c24"/><path d="M196,112.54l-.82-6.28a40.94,40.94,0,0,0,5.13-80.16L202,20A47.27,47.27,0,0,1,196,112.54Z" opacity="0.9"/><polygon points="204.56 15.8 189.87 21.59 202.22 31.41 204.56 15.8" opacity="0.9"/><path d="M177.79,111.37a47.27,47.27,0,0,1,5.26-92.47l.91,6.27a40.94,40.94,0,0,0-4.55,80.08Z" opacity="0.9"/><polygon points="175.18 115.55 189.87 109.77 177.52 99.94 175.18 115.55" opacity="0.9"/><polygon points="84.1 172.28 103.6 161.02 84.1 149.76 84.1 172.28" fill="#ec1c24"/><polygon points="37.69 164.49 20.1 164.49 20.1 156.49 34.56 156.49 74.12 117.49 86.1 117.49 86.1 125.49 77.24 125.49 37.69 164.49" opacity="0.9"/><polygon points="84.1 132.64 103.6 121.38 84.1 110.12 84.1 132.64" opacity="0.9"/><polygon points="48.81 139.6 54.13 134.12 37.69 117.49 20.1 117.49 20.1 125.49 34.56 125.49 48.81 139.6" fill="#ec1c24"/><polygon points="77.24 156.49 62.99 142.59 57.67 147.97 74.12 164.49 86.1 164.49 86.1 156.49 77.24 156.49" fill="#ec1c24"/><path d="M142.15,295.08h17.56c3.86,0,7,2.72,7,6.06v10.63A11.77,11.77,0,0,1,156,319.13a12,12,0,0,1-11.72-11.74,12.41,12.41,0,0,0-.25,2.47,12.17,12.17,0,0,0,12,12.26,12,12,0,0,0,10.72-6.68v3.9c0,3.32-3.16,6-7,6H142.15c-3.86,0-7-2.72-7-6v-10.9a11.73,11.73,0,0,1,10.65-7.09,12,12,0,0,1,11.72,12.15v.11a12.76,12.76,0,0,0,.38-3,12.19,12.19,0,0,0-12-12.28,12.05,12.05,0,0,0-10.72,6.7v-3.9C135.13,297.8,138.29,295.08,142.15,295.08Z" fill="#ec1c24" fill-rule="evenodd"/><path d="M181,321.15l.88-.07a1.44,1.44,0,0,0,.29.71,1.49,1.49,0,0,0,.71.45,2.94,2.94,0,0,0,1.07.18,3.7,3.7,0,0,0,.95-.12,1.41,1.41,0,0,0,.61-.36.69.69,0,0,0,.2-.5.65.65,0,0,0-.2-.48,1.56,1.56,0,0,0-.63-.36l-1.25-.29a7.62,7.62,0,0,1-1.36-.36,1.79,1.79,0,0,1-.75-.55,1.11,1.11,0,0,1-.25-.73,1.28,1.28,0,0,1,.3-.84,1.9,1.9,0,0,1,.88-.59,4.25,4.25,0,0,1,1.3-.2,4,4,0,0,1,1.38.21,1.9,1.9,0,0,1,.91.63,1.68,1.68,0,0,1,.34.93l-.88.05a1.12,1.12,0,0,0-.5-.84,2.07,2.07,0,0,0-1.22-.29,2.36,2.36,0,0,0-1.23.25.75.75,0,0,0-.39.63.61.61,0,0,0,.27.52,4.06,4.06,0,0,0,1.41.43,10.34,10.34,0,0,1,1.55.38,2,2,0,0,1,.89.59,1.35,1.35,0,0,1,.3.84,1.36,1.36,0,0,1-.32.88,2.09,2.09,0,0,1-.91.64,3.67,3.67,0,0,1-1.36.23,4.63,4.63,0,0,1-1.61-.23,2.36,2.36,0,0,1-1-.7A1.67,1.67,0,0,1,181,321.15Z" fill-rule="evenodd" opacity="0.9"/><path d="M187.76,324.65l-.11-.68a1.87,1.87,0,0,0,.5.07,1.13,1.13,0,0,0,.46-.09,1.09,1.09,0,0,0,.29-.21,4.16,4.16,0,0,0,.25-.54,1.7,1.7,0,0,1,.09-.18l-1.95-4.25h.93l1.07,2.47a8.9,8.9,0,0,1,.38,1c.09-.3.21-.63.34-.95l1.11-2.48H192L190,323.08a5.51,5.51,0,0,1-.48,1,1.43,1.43,0,0,1-.52.52,1.71,1.71,0,0,1-1.27.07Z" fill-rule="evenodd" opacity="0.9"/><path d="M192.37,321.76l.86-.11a.91.91,0,0,0,.39.64,1.66,1.66,0,0,0,.93.23,1.47,1.47,0,0,0,.88-.21.54.54,0,0,0,.29-.45.43.43,0,0,0-.25-.39,4.26,4.26,0,0,0-.89-.25,9,9,0,0,1-1.3-.34,1.28,1.28,0,0,1-.57-.41.94.94,0,0,1-.18-.57.89.89,0,0,1,.16-.52,1,1,0,0,1,.41-.41,1.79,1.79,0,0,1,.55-.21,3.33,3.33,0,0,1,.75-.09,3.76,3.76,0,0,1,1.05.14,1.75,1.75,0,0,1,.68.39,1.49,1.49,0,0,1,.29.66l-.84.11a.75.75,0,0,0-.34-.52,1.39,1.39,0,0,0-.79-.18,1.61,1.61,0,0,0-.84.16.43.43,0,0,0-.25.38.39.39,0,0,0,.11.27.9.9,0,0,0,.32.18c.09,0,.34.09.77.2.61.13,1,.25,1.29.32a1.16,1.16,0,0,1,.55.39.87.87,0,0,1,.21.61,1.09,1.09,0,0,1-.25.66,1.58,1.58,0,0,1-.73.5,2.94,2.94,0,0,1-1.07.18,2.72,2.72,0,0,1-1.52-.36A1.53,1.53,0,0,1,192.37,321.76Z" fill-rule="evenodd" opacity="0.9"/><path d="M199.52,322.37l.13.64a4.69,4.69,0,0,1-.64.07,1.87,1.87,0,0,1-.73-.13.78.78,0,0,1-.38-.34,2,2,0,0,1-.11-.82v-2.47h-.63v-.55h.63v-1.05l.88-.45v1.5h.86v.55h-.86v2.5a1,1,0,0,0,0,.38.54.54,0,0,0,.14.14.71.71,0,0,0,.3.05Z" fill-rule="evenodd" opacity="0.9"/><path d="M203.86,321.67l.89.09a1.88,1.88,0,0,1-.79,1,2.71,2.71,0,0,1-1.45.36h-.07v-.61a.11.11,0,0,0,.07,0,1.42,1.42,0,0,0,.8-.21,1.29,1.29,0,0,0,.54-.64Zm-1.41-3h0a2.36,2.36,0,0,1,1.66.59,2.05,2.05,0,0,1,.66,1.64v.18h-2.34v-.59h1.43a1.29,1.29,0,0,0-.34-.8,1.39,1.39,0,0,0-1.07-.41h0Zm0,4.45a2.71,2.71,0,0,1-1.72-.57,2.06,2.06,0,0,1-.66-1.61,2.1,2.1,0,0,1,.68-1.66,2.43,2.43,0,0,1,1.7-.61v.61a1.51,1.51,0,0,0-1,.32,1.28,1.28,0,0,0-.45.89h1.43v.59H201a1.37,1.37,0,0,0,.46,1.07,1.49,1.49,0,0,0,1,.36Z" fill-rule="evenodd" opacity="0.9"/><path d="M205.85,323v-4.23h.77v.59a1.65,1.65,0,0,1,.64-.5,2.13,2.13,0,0,1,.91-.2,2,2,0,0,1,.93.2,1.29,1.29,0,0,1,.52.55,1.91,1.91,0,0,1,1.57-.75,1.74,1.74,0,0,1,1.16.36,1.36,1.36,0,0,1,.41,1.09V323h-.86v-2.66a1.71,1.71,0,0,0-.09-.63.63.63,0,0,0-.3-.3,1.17,1.17,0,0,0-.52-.13,1.35,1.35,0,0,0-.89.3,1.2,1.2,0,0,0-.36,1V323h-.86v-2.75a1,1,0,0,0-.21-.71.89.89,0,0,0-.7-.25,1.52,1.52,0,0,0-.68.16,1,1,0,0,0-.45.48,2.25,2.25,0,0,0-.14.89V323Z" fill-rule="evenodd" opacity="0.9"/><path d="M213.71,321.76l.84-.11a1,1,0,0,0,.41.64,1.63,1.63,0,0,0,.91.23,1.5,1.5,0,0,0,.89-.21.54.54,0,0,0,.29-.45.43.43,0,0,0-.25-.39,4.27,4.27,0,0,0-.89-.25,10.15,10.15,0,0,1-1.32-.34,1.33,1.33,0,0,1-.55-.41.94.94,0,0,1-.18-.57.87.87,0,0,1,.14-.52,1.18,1.18,0,0,1,.43-.41,1.79,1.79,0,0,1,.55-.21,3.32,3.32,0,0,1,.75-.09,3.76,3.76,0,0,1,1.05.14,1.54,1.54,0,0,1,.66.39,1.51,1.51,0,0,1,.3.66l-.84.11a.81.81,0,0,0-.34-.52,1.39,1.39,0,0,0-.79-.18,1.61,1.61,0,0,0-.84.16.45.45,0,0,0-.27.38.39.39,0,0,0,.11.27.85.85,0,0,0,.34.18c.09,0,.34.09.77.2.61.13,1,.25,1.27.32a1.22,1.22,0,0,1,.57.39.87.87,0,0,1,.21.61,1.09,1.09,0,0,1-.25.66,1.58,1.58,0,0,1-.73.5,2.94,2.94,0,0,1-1.07.18,2.68,2.68,0,0,1-1.52-.36A1.47,1.47,0,0,1,213.71,321.76Z" fill-rule="evenodd" opacity="0.9"/><rect x="221.96" y="317.15" width="0.95" height="5.86" opacity="0.9"/><path d="M224.43,323v-4.23h.79v.61a1.92,1.92,0,0,1,1.63-.71,2.51,2.51,0,0,1,.84.14,1.33,1.33,0,0,1,.59.36,1.51,1.51,0,0,1,.27.54,3.26,3.26,0,0,1,.05.71V323h-.88v-2.57a1.58,1.58,0,0,0-.11-.66.67.67,0,0,0-.36-.34,1.2,1.2,0,0,0-.59-.14,1.59,1.59,0,0,0-1,.3,1.28,1.28,0,0,0-.39,1.11V323Z" fill-rule="evenodd" opacity="0.9"/><path d="M233.24,321.47l.86.09a1.82,1.82,0,0,1-.71,1.14,2.7,2.7,0,0,1-3.09-.16,2.06,2.06,0,0,1-.64-1.63,2.65,2.65,0,0,1,.27-1.22,1.76,1.76,0,0,1,.84-.77,2.81,2.81,0,0,1,1.22-.27,2.39,2.39,0,0,1,1.36.36,1.53,1.53,0,0,1,.68,1l-.84.11a1,1,0,0,0-.43-.64,1.23,1.23,0,0,0-.73-.21,1.49,1.49,0,0,0-1.05.38,2.12,2.12,0,0,0,0,2.48,1.42,1.42,0,0,0,1,.39,1.36,1.36,0,0,0,.86-.27A1.14,1.14,0,0,0,233.24,321.47Z" fill-rule="evenodd" opacity="0.9"/><rect x="235.08" y="322.19" width="0.98" height="0.82" opacity="0.9"/><path d="M170.08,296.17h5.16l11.65,13.22V299.23a3.39,3.39,0,0,0-.39-2,2.17,2.17,0,0,0-1.63-.54h-.66v-.48h6.61v.48h-.68a2,2,0,0,0-1.72.68,3.78,3.78,0,0,0-.3,1.89v14.85h-.5l-12.56-14.19v10.85a3.43,3.43,0,0,0,.38,2,2.25,2.25,0,0,0,1.64.54h.68v.48h-6.63v-.48h.66a2,2,0,0,0,1.73-.68,3.73,3.73,0,0,0,.3-1.89V298.48a9.12,9.12,0,0,0-1.27-1.18,5,5,0,0,0-1.25-.54,5.19,5.19,0,0,0-1.23-.11Z" fill-rule="evenodd" opacity="0.9"/><path d="M200.11,313.31v.48h-8.17v-.48h.68a2.1,2.1,0,0,0,1.72-.63,3.82,3.82,0,0,0,.34-2v-11.4a5,5,0,0,0-.2-1.75,1.18,1.18,0,0,0-.57-.57,3,3,0,0,0-1.29-.3h-.68v-.48h8.17v.48h-.68a2.16,2.16,0,0,0-1.72.63,3.65,3.65,0,0,0-.34,2v11.4a5.36,5.36,0,0,0,.18,1.77,1.19,1.19,0,0,0,.59.55,2.84,2.84,0,0,0,1.29.3Z" fill-rule="evenodd" opacity="0.9"/><path d="M214,307.89h-3.68v-1h3.29l-3.23-7.11-.05.09V297l.57-1.22h.48L218,310.43a6.58,6.58,0,0,0,1.45,2.29,3.08,3.08,0,0,0,1.82.59v.48h-7.52v-.48a3.08,3.08,0,0,0,1.54-.34.9.9,0,0,0,.41-.73,5.16,5.16,0,0,0-.57-1.8Zm-3.68,0h-3.7l-1.3,2.79a4,4,0,0,0-.48,1.54.84.84,0,0,0,.43.7,3.56,3.56,0,0,0,1.79.39v.48h-6v-.48a3.36,3.36,0,0,0,1.55-.5,8,8,0,0,0,1.57-2.54L210.31,297v2.91l-3.27,7h3.27Z" fill-rule="evenodd" opacity="0.9"/><path d="M232.83,296.3a12.91,12.91,0,0,1,3.54.77,7.67,7.67,0,0,1,3.59,3,8.86,8.86,0,0,1,1.36,4.84,8.39,8.39,0,0,1-2.43,6.15,9.81,9.81,0,0,1-6.06,2.63v-1.07a7.41,7.41,0,0,0,3.13-1.82,8.79,8.79,0,0,0,0-11.51,7.17,7.17,0,0,0-3.13-1.8Zm-10.72,17.49v-.48h.71a2,2,0,0,0,1.72-.71,3.91,3.91,0,0,0,.3-1.91v-11.4a3.32,3.32,0,0,0-.39-2.05,2.17,2.17,0,0,0-1.63-.57h-.71v-.48h7.75c1.09,0,2.07,0,3,.13v1.16a9.35,9.35,0,0,0-2.39-.3,13,13,0,0,0-2.89.38v15a15,15,0,0,0,3,.36,8.63,8.63,0,0,0,2.29-.29v1.07a17.34,17.34,0,0,1-2.2.13Z" fill-rule="evenodd" opacity="0.9"/><path d="M162.77,140.43l1.65,11L166,162.6l1.57,11.4L169,185.49c1,7.67,1.81,15.34,2.67,22.89s1.55,15,2.22,22.17l.1,1.11h31.81l.1-1.1c.67-7.19,1.4-14.62,2.22-22.17s1.67-15.22,2.67-22.89L212.19,174l1.57-11.4,1.56-11.22,1.65-11,1.6-10.59,1.32-8.09a64.27,64.27,0,0,1-59.9,1l1.17,7.13Z" opacity="0.2" fill="url(#a)"/><path d="M263.25,169l-3.72,7c-2.95,5.56-6,11.29-9.19,17.06l-4.78,8.73-4.9,8.74c-3.25,5.85-6.61,11.62-9.88,17.32l-2.2,3.78h52l1.88-1.88,7.11-7c4.69-4.63,9.38-9.13,13.93-13.47l6.7-6.41,3.25-3A60.73,60.73,0,0,1,263.25,169Z" opacity="0.2" fill="url(#b)"/><path d="M101.5,229.71l1.95,1.94h51.73L153,228c-3.27-5.71-6.63-11.47-9.87-17.33l-4.89-8.74-4.77-8.74c-3.18-5.77-6.23-11.51-9.17-17.08L120,167.86l-2.34-4.54A60.8,60.8,0,0,1,70,199.41l3.75,3.5,6.71,6.4c4.56,4.34,9.26,8.83,14,13.45Z" opacity="0.2" fill="url(#c)"/></svg>