<svg xmlns="http://www.w3.org/2000/svg" width="150" height="150" viewBox="0 0 150 150"><title>icon-sales</title><path d="M48.17,21.5A32.73,32.73,0,1,0,80.9,54.23,32.73,32.73,0,0,0,48.17,21.5Zm4,53.45v5H44.5V74.77c-5.31-1.34-8.92-5.13-10.73-10.56l7.17-2.62c1.57,3.62,4.43,6.24,7.87,6.24s5.54-1.75,5.54-5c0-3.56-3.56-4.9-7.58-6.47C41.53,54.36,35.4,52,35.4,44.09c0-5,3.21-9.39,9.1-10.61V28.81h7.64v4.72c4.72,1.22,7.52,4.67,8.75,8.92l-7.06,2.33a6.26,6.26,0,0,0-6-4.26c-2.74,0-4.37,1.28-4.37,3.56,0,2.68,3.09,3.85,6.82,5.25,5.37,2,12.13,4.61,12.13,13.47C62.4,69.58,57.91,73.84,52.14,74.94Z" fill="#ec1c24"/><path d="M100.33,39.66l11.75,9.62L74.68,95l-9.56-8.53a39.16,39.16,0,0,1-31,1.24L8.37,120.57l12,9.4,29-37.12,27,24.08,47.48-58,11.75,9.62,7.37-45Z" fill="#b3b3b3"/></svg>