<svg xmlns="http://www.w3.org/2000/svg" width="150" height="150" viewBox="0 0 150 150"><title>icon-niad</title><path d="M40.37,15.28h70.35c15.46,0,28.12,10.88,28.12,24.26V82.12c-7.23,17.32-23.9,29.48-43.15,29.48-25.33,0-46.09-21-46.95-47a49.71,49.71,0,0,0-1,9.88c0,27.05,21.68,49.09,48.16,49.09a48.21,48.21,0,0,0,42.94-26.76v15.6c0,13.31-12.67,24.19-28.12,24.19H40.37c-15.46,0-28.12-10.88-28.12-24.19V68.74C19.69,52,36,40.33,54.9,40.33c25.91,0,46.95,21.9,46.95,48.66v.43a51.09,51.09,0,0,0,1.5-12c0-27.05-21.68-49.17-48.16-49.17A48.27,48.27,0,0,0,12.25,55.14V39.54C12.25,26.16,24.91,15.28,40.37,15.28Z" fill="#ec1c24" fill-rule="evenodd"/></svg>