<svg xmlns="http://www.w3.org/2000/svg" width="150" height="150" viewBox="0 0 150 150"><title>icon-general-inquiries</title><path d="M90.83,96.44a30.61,30.61,0,0,0,2.61-11.59c.15-11.25-4.7-20.19-13.09-27.33A48.78,48.78,0,0,0,55.62,46.57c-.5-.08-1-.22-1.74-.39,1.18-1.56,2.17-3,3.34-4.37C64.07,33.92,72.9,29.4,83,27.31c12.84-2.66,25.31-1.39,37.11,4.59,7.72,3.92,14.05,9.43,17.68,17.45,5,11,3.23,21.33-4.2,30.68a55.41,55.41,0,0,1-6.45,6.31A2.88,2.88,0,0,0,126,88.73c0,4.24,0,8.49,0,12.73,0,.51,0,1,0,1.8-.89-.46-1.54-.78-2.18-1.13-4.12-2.29-8.21-4.62-12.36-6.86a3.44,3.44,0,0,0-2.22-.28,63.56,63.56,0,0,1-16.82,1.67C92,96.65,91.5,96.54,90.83,96.44Z" fill="#b3b3b3"/><path d="M25.82,126c-.49-2.74-.94-5.23-1.37-7.73-.58-3.34-1.09-6.68-1.75-10a3.28,3.28,0,0,0-1.22-1.86,31.91,31.91,0,0,1-10-10.78c-5.29-9.71-3.69-20.84,4.17-29.2A38.48,38.48,0,0,1,36.55,55.1c11.51-2.34,22.61-1.15,33,4.66,6.93,3.88,12.32,9.28,14.67,17,2.94,9.68.15,18.05-6.73,25.13-6.2,6.38-14,9.73-22.67,11.18a51.54,51.54,0,0,1-13.1.4,3.14,3.14,0,0,0-2,.84c-4.21,3.49-8.38,7-12.56,10.56C26.82,125.2,26.45,125.48,25.82,126Zm2-45.44a4.67,4.67,0,0,0-4.7,4.77A4.81,4.81,0,0,0,27.86,90a4.9,4.9,0,0,0,4.74-4.83A4.75,4.75,0,0,0,27.84,80.55Zm18.43,0a4.63,4.63,0,0,0-4.75,4.55A4.72,4.72,0,0,0,46.14,90a4.84,4.84,0,0,0,4.8-4.74A4.73,4.73,0,0,0,46.27,80.54Zm13.62,4.67A4.7,4.7,0,0,0,64.6,90a4.77,4.77,0,0,0,4.64-4.73,4.65,4.65,0,0,0-4.75-4.71A4.58,4.58,0,0,0,59.88,85.21Z" fill="#ec1c24"/></svg>