<svg xmlns="http://www.w3.org/2000/svg" width="337.06" height="337.95" viewBox="0 0 337.06 337.95"><title>diagram-increase-participation</title><path d="M75,46.69l-7-9.33,1.42-1.07,7,9.33Z" fill="#231f20"/><path d="M82.77,41.15l-2.55-3.71c-.95-1.37-1.83-1.68-3-.88a2.24,2.24,0,0,0-1.11,1.92l3.39,4.92-1.4,1-4.66-6.78,1.18-.81.51.54a3.61,3.61,0,0,1,1.47-2.1c2-1.4,3.69-.67,5,1.26l2.55,3.71Z" fill="#231f20"/><path d="M83.12,36c-1.24-2-1.08-4.35,1.22-5.76a4.94,4.94,0,0,1,2.43-.86l.6,1.39a4.29,4.29,0,0,0-2.12.63c-1.41.86-1.56,2.21-.66,3.69s2.19,2,3.6,1.12a4.25,4.25,0,0,0,1.52-1.6l.9,1.09a4.25,4.25,0,0,1-1.8,1.82C86.52,38.92,84.32,37.94,83.12,36Z" fill="#231f20"/><path d="M92.36,27.54l-.52.29a2.21,2.21,0,0,0-1.05,1.71l2.79,5L92,35.42l-4-7.18,1.3-.72.69,1A3.53,3.53,0,0,1,91.58,26l.23-.13Z" fill="#231f20"/><path d="M95.93,28.79a2.64,2.64,0,0,0,3.75,1.09,5.88,5.88,0,0,0,1.92-1.58l.77,1.16a6.37,6.37,0,0,1-2.18,1.8,4.14,4.14,0,0,1-5.92-1.87A4,4,0,0,1,96,23.82a3.34,3.34,0,0,1,4.77,1.55,4.7,4.7,0,0,1,.34.86Zm-.43-1.09,3.57-1.79a1.66,1.66,0,0,0-2.45-.79A2.07,2.07,0,0,0,95.49,27.71Z" fill="#231f20"/><path d="M110.39,26.63l-.31.13a1.84,1.84,0,0,1-2.31-.21,3.28,3.28,0,0,1-1.86,2,2.32,2.32,0,0,1-3.23-1.23c-.93-2.13,1.5-3.82,3.23-4.61-.56-1.23-1.18-1.34-2.22-.89a4,4,0,0,0-1.74,1.51l-.73-1.17a5.36,5.36,0,0,1,2.3-1.9c1.83-.8,3.06-.28,4.17,2.26l.75,1.71c.47,1.08.73,1.41,1.43,1.11l.18-.08Zm-4-2.84c-1.77.86-2.59,1.75-2.13,2.79a1.06,1.06,0,0,0,1.58.58,2.49,2.49,0,0,0,1.32-1.6Z" fill="#231f20"/><path d="M110.87,25.72l-.38-1.52a4.39,4.39,0,0,0,2.68-.13c1-.37,1.26-.92,1.05-1.45-.28-.75-1.2-.72-2-.65-1.17.11-2.59.22-3.17-1.31-.43-1.14-.16-2.63,2-3.44a4.82,4.82,0,0,1,2.4-.3l.36,1.47a3.22,3.22,0,0,0-2.24,0c-.81.31-1.31.83-1,1.52s1,.64,2.24.54c1-.08,2.44-.11,3,1.5.37,1,.35,2.47-2.1,3.4A5.27,5.27,0,0,1,110.87,25.72Z" fill="#231f20"/><path d="M117.88,19.49a2.64,2.64,0,0,0,3.54,1.64,5.88,5.88,0,0,0,2.13-1.27l.58,1.27a6.37,6.37,0,0,1-2.42,1.45,4.14,4.14,0,0,1-5.56-2.74,4,4,0,0,1,2.51-5.26,3.34,3.34,0,0,1,4.48,2.25,4.68,4.68,0,0,1,.2.9Zm-.26-1.14,3.79-1.23a1.66,1.66,0,0,0-2.3-1.15A2.07,2.07,0,0,0,117.61,18.34Z" fill="#231f20"/><path d="M131.57,19.61l-.34-.77a3.31,3.31,0,0,1-2,1.56c-2.21.58-4.19-.87-4.79-3.16s.29-4.51,2.63-5.12a3.17,3.17,0,0,1,2.46.25l-1.26-4.83,1.63-.43,3.16,12.11Zm-5.46-2.82c.4,1.53,1.51,2.5,2.85,2.15s2-1.46,1.56-3.27-1.77-2.49-3-2.17S125.7,15.21,126.11,16.79Z" fill="#231f20"/><path d="M138.2,17.54l-.13-2.06a6,6,0,0,0,3.8.55c1.35-.23,2.45-.84,2.24-2s-1.61-1.48-3.26-1.73c-1.91-.28-3.84-.54-4.18-2.53-.25-1.46.42-3.54,3.57-4.08a8.15,8.15,0,0,1,3.78.2l.13,1.86a7.41,7.41,0,0,0-3.5-.47c-1.09.19-2.35.83-2.16,1.94s1.33,1.25,2.75,1.42c2,.26,4.35.51,4.79,3,.21,1.25,0,3.35-3.92,4A8.39,8.39,0,0,1,138.2,17.54Z" fill="#231f20"/><path d="M154.62,15.92l-.33,0c-1.28.14-1.74-.22-2.15-.88a3.28,3.28,0,0,1-2.38,1.39A2.32,2.32,0,0,1,147,14.34c-.26-2.3,2.56-3.21,4.44-3.46-.17-1.34-.74-1.63-1.87-1.5a4,4,0,0,0-2.11.93L147.15,9a5.37,5.37,0,0,1,2.76-1.13c2-.22,3,.63,3.32,3.38l.21,1.86c.13,1.18.28,1.56,1,1.48l.2,0Zm-3-3.89c-1.95.3-3,.91-2.86,2a1.06,1.06,0,0,0,1.34,1,2.48,2.48,0,0,0,1.73-1.14Z" fill="#231f20"/><path d="M158.54,15.65l-.57,0a1.9,1.9,0,0,1-2.26-1.87l-.79-10.61,1.68-.12.72,9.75c.1,1.36.3,1.52,1.33,1.44Z" fill="#231f20"/><path d="M160.9,11.39a2.64,2.64,0,0,0,3,2.55,5.86,5.86,0,0,0,2.4-.63l.22,1.38a6.38,6.38,0,0,1-2.73.73,4.14,4.14,0,0,1-4.6-4.17A4,4,0,0,1,163,6.87a3.34,3.34,0,0,1,3.69,3.39,4.75,4.75,0,0,1-.05.92Zm.06-1.17,4-.14A1.66,1.66,0,0,0,163,8.34,2.07,2.07,0,0,0,161,10.22Z" fill="#231f20"/><path d="M167.75,14.62l.21-1.55a4.41,4.41,0,0,0,2.54.88c1,0,1.51-.39,1.52-1,0-.8-.85-1.11-1.58-1.33-1.13-.33-2.49-.76-2.46-2.39,0-1.22.83-2.51,3.11-2.47a4.83,4.83,0,0,1,2.34.61l-.21,1.5a3.22,3.22,0,0,0-2.09-.82c-.87,0-1.52.29-1.54,1s.68,1,1.88,1.33c.91.28,2.31.8,2.28,2.52,0,1.05-.59,2.43-3.21,2.38A5.26,5.26,0,0,1,167.75,14.62Z" fill="#231f20"/><path d="M181.25,11.66l-.36,4-1.83-.16,1-11.63,3.59.32c2.53.23,4.33.89,4,4s-2.54,3.81-4.12,3.67Zm.55-6.1L181.4,10l2.08.19c1.59.14,2.29-.56,2.44-2.14s-.41-2.2-2.35-2.37Z" fill="#231f20"/><path d="M189.84,12.63a2.64,2.64,0,0,0,2.45,3,5.89,5.89,0,0,0,2.47-.19l0,1.39a6.38,6.38,0,0,1-2.82.22,4.14,4.14,0,0,1-3.78-4.93,4,4,0,0,1,4.58-3.61,3.34,3.34,0,0,1,3,4,4.73,4.73,0,0,1-.22.9Zm.27-1.14,3.95.58A1.66,1.66,0,0,0,192.5,10,2.07,2.07,0,0,0,190.11,11.49Z" fill="#231f20"/><path d="M201.7,11.85l-.59-.11a2.22,2.22,0,0,0-1.91.63L198.11,18l-1.74-.34,1.56-8.07,1.46.28-.09,1.19a3.53,3.53,0,0,1,2.81-.92l.26.05Z" fill="#231f20"/><path d="M205.37,12.53l-1.55,6.7-1.66-.38,1.55-6.7-1.3-.3.48-1.27,1.12.26.46-2a2,2,0,0,1,2.39-1.74,5.8,5.8,0,0,1,1.68.58L208,9a3.83,3.83,0,0,0-.91-.35c-.7-.16-.87.13-1.19,1.54l-.24,1,2,.46-.3,1.32Z" fill="#231f20"/><path d="M207.48,15.83a4.12,4.12,0,1,1,7.92,2.22,4.12,4.12,0,1,1-7.92-2.22Zm1.67.47c-.47,1.67.06,2.93,1.53,3.34s2.59-.38,3.05-2.06-.06-2.94-1.54-3.36S209.63,14.62,209.15,16.3Z" fill="#231f20"/><path d="M221.65,17.39l-.57-.19a2.22,2.22,0,0,0-2,.38L217.29,23l-1.68-.56,2.6-7.81,1.41.47-.25,1.17a3.53,3.53,0,0,1,2.91-.55l.25.08Z" fill="#231f20"/><path d="M230.81,28.18l1.76-4.34c.58-1.42.36-2.27-.83-2.75a1.79,1.79,0,0,0-2.6,1.14l-1.84,4.53-1.58-.64,1.69-4.17c.73-1.79.28-2.5-.78-2.92a2.18,2.18,0,0,0-2.16.13l-2.25,5.55-1.58-.64,3.09-7.62,1.25.51-.16.78a3.3,3.3,0,0,1,2.52,0,2.92,2.92,0,0,1,1.93,2.42,3.08,3.08,0,0,1,3.26-.32c2,.8,2.48,2.41,1.58,4.62l-1.77,4.36Z" fill="#231f20"/><path d="M239.88,32.75l-.3-.15c-1.15-.57-1.34-1.13-1.33-1.9a3.28,3.28,0,0,1-2.75-.11,2.32,2.32,0,0,1-1.15-3.26c1-2.08,3.89-1.32,5.61-.51.58-1.22.26-1.77-.76-2.27a4,4,0,0,0-2.28-.36l.42-1.32a5.36,5.36,0,0,1,2.94.53c1.8.88,2.19,2.16,1,4.64l-.83,1.68c-.52,1.06-.61,1.47.08,1.8l.18.09Zm-.42-4.89c-1.8-.79-3-.85-3.51.17a1.06,1.06,0,0,0,.58,1.59,2.49,2.49,0,0,0,2.07,0Z" fill="#231f20"/><path d="M246,36,248.19,32c.82-1.45.71-2.38-.53-3.08a2.24,2.24,0,0,0-2.21-.16L242.51,34,241,33.17l4-7.17,1.25.71-.26.7a3.62,3.62,0,0,1,2.54.39c2.15,1.21,2.23,3,1.07,5.07l-2.21,3.93Z" fill="#231f20"/><path d="M250.76,34c1.27-2,3.43-2.88,5.71-1.42a5,5,0,0,1,1.84,1.8l-1,1.15a4.3,4.3,0,0,0-1.5-1.62c-1.39-.89-2.67-.43-3.6,1s-.82,2.84.57,3.73a4.26,4.26,0,0,0,2.1.67l-.58,1.29a4.25,4.25,0,0,1-2.43-.81C249.61,38.34,249.52,35.93,250.76,34Z" fill="#231f20"/><path d="M258.41,39.17a2.64,2.64,0,0,0,.8,3.83,5.88,5.88,0,0,0,2.29,1l-.67,1.23a6.38,6.38,0,0,1-2.61-1.08A4.14,4.14,0,0,1,257.1,38a4,4,0,0,1,5.72-1.14,3.34,3.34,0,0,1,.88,4.94,4.64,4.64,0,0,1-.6.7Zm.76-.89,3.25,2.31a1.66,1.66,0,0,0-.45-2.53A2.07,2.07,0,0,0,259.17,38.28Z" fill="#231f20"/><polygon points="201.75 114.01 166.83 71.97 131.9 114.01 149.37 114.47 113.12 250.23 166.83 242.05 225.91 250.23 184.29 114.47 201.75 114.01" fill="#00a800"/><path d="M304.31,169.84l0-2.1-.11-1.92-.23-3.85c-.09-1.3-.26-2.69-.39-4s-.24-2.72-.47-4c-.42-2.64-.76-5.29-1.34-7.89-.27-1.3-.51-2.61-.81-3.89l-1-3.83-.49-1.9-.57-1.87-1.15-3.7c-.4-1.22-.86-2.41-1.28-3.6s-.82-2.38-1.32-3.52c-1-2.29-1.83-4.58-2.91-6.71l-1.52-3.19c-.51-1-1.08-2-1.61-3.05s-1-2-1.59-3L285.83,105c-1.06-1.85-2.19-3.56-3.29-5.2s-2.18-3.18-3.25-4.62l-1.54-2.11-1.54-1.93c-1-1.23-1.9-2.43-2.83-3.45l-2.51-2.83c-1.51-1.71-2.82-2.94-3.65-3.83l-1.3-1.34-.92.83L266.12,82c.72,1,1.86,2.32,3.14,4.17l2.13,3c.79,1.1,1.54,2.36,2.39,3.66l1.3,2,1.28,2.21c.88,1.51,1.81,3.08,2.67,4.79s1.84,3.44,2.68,5.31l1.34,2.83c.43,1,.83,2,1.25,3s.86,2,1.26,3.06l1.16,3.18c.82,2.13,1.45,4.38,2.19,6.62.39,1.12.64,2.29,1,3.44s.64,2.32.92,3.5l.78,3.57.39,1.8.31,1.82.62,3.66.49,3.7c.38,2.46.51,5,.73,7.45.13,1.25.11,2.46.17,3.69s.11,2.41.11,3.68l0,3.85,0,1.92s0-.18,0-.06v.4l0,.46-.05.92a104,104,0,0,1-1.72,14.23c-.18,1.14-.46,2.26-.68,3.38s-.48,2.21-.75,3.29c-.45,2.18-1.08,4.26-1.56,6.32-1.12,4.07-2.23,7.9-3.31,11.43s-2.15,6.74-3.23,9.56c-.51,1.42-1,2.75-1.5,4s-.9,2.35-1.33,3.32l-.36.87-10.7-7.57-3.41,36.9,33.66-15.49-11-7.81c.38-.6.8-1.27,1.25-2,.65-1,1.3-2.15,2-3.39s1.43-2.6,2.18-4.07a103.92,103.92,0,0,0,4.48-10.14,92.44,92.44,0,0,0,3.69-12.6c.48-2.28.89-4.64,1.23-7.06q.27-1.81.43-3.68c.11-1.24.28-2.49.34-3.75C304.34,180.34,304.41,175.12,304.31,169.84Z" fill="#cc181f"/><path d="M255.82,264.39l-1.47,1.13c-1,.72-2.33,1.86-4.18,3.14l-3.05,2.13c-1.1.78-2.36,1.53-3.67,2.39l-2,1.3-2.21,1.28-2.32,1.35c-.79.46-1.64.87-2.48,1.32l-2.59,1.36c-.88.47-1.81.87-2.74,1.31l-2.83,1.33-3,1.25c-1,.41-2,.87-3.07,1.25L217,286.09l-1.62.59-1.66.53-3.35,1.07c-1.12.37-2.29.63-3.45,1s-2.32.65-3.51.91c-2.38.49-4.76,1.11-7.21,1.47l-3.67.62-3.71.48c-2.47.38-5,.49-7.46.72-1.25.11-2.46.1-3.69.16s-2.4.12-3.7.1l-3.86,0h-1.79l-1.84-.11a105,105,0,0,1-14.25-1.75c-2.28-.45-4.51-.9-6.67-1.45s-4.26-1.1-6.32-1.58c-4.08-1.13-7.9-2.25-11.43-3.34s-6.75-2.17-9.56-3.26c-1.42-.51-2.75-1-4-1.51s-2.35-.91-3.32-1.34l-.88-.37,7.6-10.68-36.89-3.52,15.4,33.71,7.85-11,2,1.26c1,.65,2.15,1.31,3.39,2s2.6,1.44,4.06,2.19a104.55,104.55,0,0,0,10.14,4.52,92.67,92.67,0,0,0,12.6,3.72c2.28.49,4.64.91,7.06,1.25,1.21.17,2.44.33,3.68.45s2.49.28,3.76.35c5.05.43,10.29.49,15.57.41l2,0h.61l.48,0,1-.06,3.85-.23c1.27-.06,2.69-.26,4-.38s2.72-.25,4-.46c2.64-.43,5.3-.74,7.9-1.32l3.9-.8,3.83-1c2.55-.6,5-1.47,7.47-2.2,1.23-.38,2.41-.85,3.61-1.27s2.38-.82,3.53-1.31c2.29-1,4.59-1.82,6.72-2.9l3.2-1.52c1.05-.5,2.05-1.08,3.06-1.6l3-1.58,2.8-1.66c1.85-1.06,3.57-2.18,5.21-3.28.82-.55,1.64-1.06,2.4-1.62l2.23-1.63,2.12-1.54,1.93-1.54c1.24-1,2.44-1.9,3.46-2.83l2.83-2.51c1.72-1.51,3-2.82,3.84-3.65l1.34-1.3Z" fill="#cc181f"/><path d="M67.62,249.17l-2.13-3.07c-.78-1.11-1.53-2.38-2.39-3.69-.42-.66-.87-1.33-1.29-2l-1.28-2.22-1.35-2.33c-.45-.8-.86-1.65-1.31-2.5l-1.36-2.6c-.45-.89-.86-1.82-1.31-2.75l-1.33-2.85-1.24-3c-1.71-4-3.16-8.41-4.56-12.94-.34-1.14-.62-2.3-.94-3.46s-.66-2.32-.89-3.52c-.51-2.39-1.09-4.78-1.45-7.24A142.43,142.43,0,0,1,43,180.06l-.13-3.69c0-1.23-.11-2.43-.07-3.75l0-3.87v-1c0,.21,0,0,0,.06v-.41l0-.46.11-1.85a109.72,109.72,0,0,1,1.83-14.29c.91-4.57,2-8.92,3.13-13s2.32-7.92,3.41-11.46,2.23-6.76,3.33-9.57c.52-1.42,1-2.75,1.54-4s.93-2.35,1.36-3.32l.38-.9,10.63,7.68,3.78-36.86L38.59,94.58l11,7.93c-.4.61-.82,1.28-1.28,2-.66,1-1.34,2.15-2,3.39S44.77,110.51,44,112a106.1,106.1,0,0,0-4.61,10.14,92.18,92.18,0,0,0-3.81,12.63c-.28,1.14-.48,2.31-.71,3.49s-.42,2.38-.6,3.59c-.37,2.43-.6,4.93-.85,7.46-.43,5.07-.55,10.32-.49,15.63l0,2L33,168l.06,1,.23,3.87c0,1.26.21,2.65.35,4l.43,4.07a127.79,127.79,0,0,0,3.06,15.7c.61,2.56,1.43,5,2.18,7.51.35,1.24.83,2.43,1.25,3.63s.84,2.39,1.3,3.55a128.61,128.61,0,0,0,6,13.05l1.58,3,1.66,2.81c.55.92,1.06,1.83,1.61,2.71l1.66,2.54c.55.82,1.07,1.64,1.61,2.42l1.63,2.24,1.54,2.13c.51.68,1,1.32,1.54,1.95,1,1.24,1.9,2.45,2.83,3.48L66,250.46c1.51,1.73,2.82,3,3.65,3.87l1.3,1.35.92-.83-1.13-1.48C70,252.39,68.9,251,67.62,249.17Z" fill="#cc181f"/><path d="M257.46,72l-15-33.88-8,11c-.61-.4-1.29-.84-2-1.31-1-.67-2.15-1.35-3.39-2.07l-1.94-1.12L225,43.48a106.65,106.65,0,0,0-10.16-4.66A91.91,91.91,0,0,0,202.14,35a109.49,109.49,0,0,0-14.59-2.22c-5.09-.43-10.36-.58-15.69-.53l-2,0-1,0h-.61l-.48,0-3.88.23c-.66,0-1.28.06-2,.13l-2,.21-4.09.43A128.77,128.77,0,0,0,140,36.36a136.63,136.63,0,0,0-14.75,4.73,129.93,129.93,0,0,0-13.11,6l-3,1.59-2.83,1.66c-.92.55-1.84,1.07-2.72,1.62l-2.55,1.67c-.83.55-1.65,1.07-2.43,1.62L96.4,56.89l-2.13,1.55c-.68.51-1.32,1-2,1.54-1.25,1-2.45,1.91-3.49,2.84L86,65.35c-1.73,1.51-3,2.83-3.88,3.67l-1.35,1.31.83.92L83,70.11c1-.72,2.35-1.87,4.22-3.16l3.08-2.15c1.12-.78,2.38-1.54,3.7-2.4.67-.42,1.34-.87,2.05-1.3l2.23-1.29,2.34-1.36c.81-.44,1.66-.87,2.51-1.32l2.61-1.37c.9-.45,1.83-.87,2.76-1.31l2.86-1.34,3-1.25c4-1.72,8.44-3.17,13-4.58A129.4,129.4,0,0,1,141.67,44a143.53,143.53,0,0,1,15-1.77l3.71-.13,1.85-.07c.62,0,1.29,0,1.93,0l3.89,0h.73c-.21,0,0,0-.06,0h.17l.93.05,1.85.11A111.72,111.72,0,0,1,186,44.15c4.59.93,8.95,2.07,13.06,3.18s7.94,2.35,11.49,3.46,6.78,2.26,9.6,3.38l2.07.78,1.9.79c1.23.5,2.36.94,3.33,1.38l.93.4-7.73,10.6Z" fill="#cc181f"/><path d="M27.2,231.71l-10.71,4.65-.71-1.64,10.71-4.65Z" fill="#231f20"/><path d="M23.63,222.9l-4.21,1.61c-1.56.6-2.06,1.38-1.55,2.7a2.24,2.24,0,0,0,1.6,1.53l5.58-2.14.61,1.59L18,231.13l-.51-1.34.64-.37a3.61,3.61,0,0,1-1.7-1.92c-.88-2.31.21-3.74,2.41-4.58L23,221.31Z" fill="#231f20"/><path d="M18.68,221.35c-2.25.73-4.48,0-5.31-2.54a4.94,4.94,0,0,1-.27-2.56l1.5-.25a4.29,4.29,0,0,0,.12,2.21c.51,1.57,1.78,2,3.43,1.5s2.44-1.67,1.93-3.24a4.25,4.25,0,0,0-1.2-1.86l1.27-.62a4.24,4.24,0,0,1,1.35,2.17C22.34,218.73,20.87,220.64,18.68,221.35Z" fill="#231f20"/><path d="M12.65,210.37l.16.58a2.22,2.22,0,0,0,1.42,1.43l5.53-1.53.47,1.71-7.93,2.2-.4-1.43,1.11-.44a3.53,3.53,0,0,1-2.07-2.11l-.07-.26Z" fill="#231f20"/><path d="M14.72,207.23a2.64,2.64,0,0,0,1.94-3.39,5.9,5.9,0,0,0-1.08-2.23l1.31-.47a6.36,6.36,0,0,1,1.24,2.54A4.14,4.14,0,0,1,14.92,209a4,4,0,0,1-5-2.95,3.34,3.34,0,0,1,2.63-4.27,4.68,4.68,0,0,1,.91-.13Zm-1.16.17-.9-3.88a1.66,1.66,0,0,0-1.34,2.19A2.07,2.07,0,0,0,13.56,207.4Z" fill="#231f20"/><path d="M16,192.66l.06.33c.22,1.27-.12,1.75-.75,2.2a3.28,3.28,0,0,1,1.53,2.29,2.33,2.33,0,0,1-2,2.85c-2.28.4-3.36-2.36-3.72-4.23-1.33.25-1.58.83-1.39,2a4,4,0,0,0,1.05,2.05l-1.31.43a5.36,5.36,0,0,1-1.3-2.69c-.34-2,.45-3,3.18-3.52l1.84-.32c1.17-.2,1.54-.37,1.41-1.13l0-.2Zm-3.71,3.22c.42,1.92,1.09,2.93,2.2,2.73a1.06,1.06,0,0,0,.94-1.4,2.49,2.49,0,0,0-1.24-1.66Z" fill="#231f20"/><path d="M15.24,192H13.68a4.4,4.4,0,0,0,.51-2.64c-.13-1-.6-1.44-1.16-1.37-.79.1-1,1-1.09,1.75-.17,1.17-.4,2.57-2,2.78-1.21.15-2.6-.46-2.88-2.73a4.83,4.83,0,0,1,.27-2.4H8.81a3.23,3.23,0,0,0-.52,2.18c.11.86.5,1.47,1.23,1.38s.86-.81,1.05-2c.15-.94.47-2.4,2.18-2.61,1-.13,2.49.24,2.81,2.84A5.26,5.26,0,0,1,15.24,192Z" fill="#231f20"/><path d="M10.83,183.7a2.64,2.64,0,0,0,2.43-3.06,5.89,5.89,0,0,0-.73-2.37l1.37-.27a6.37,6.37,0,0,1,.84,2.7,4.14,4.14,0,0,1-4,4.77,4,4,0,0,1-4.53-3.67A3.34,3.34,0,0,1,9.48,178a4.67,4.67,0,0,1,.92,0Zm-1.17,0-.3-4a1.66,1.66,0,0,0-1.66,2A2.07,2.07,0,0,0,9.66,183.69Z" fill="#231f20"/><path d="M14.16,170.41l-.83.15a3.31,3.31,0,0,1,1,2.32c0,2.29-1.83,3.87-4.2,3.92S5.87,175.46,5.82,173a3.16,3.16,0,0,1,.82-2.33l-5,.1,0-1.68,12.51-.24Zm-4,4.65c1.58,0,2.79-.89,2.76-2.27s-.95-2.32-2.81-2.28-2.83,1.14-2.81,2.39S8.51,175.09,10.15,175.06Z" fill="#231f20"/><path d="M14.23,163l-11.65-.83.31-4.33a5.45,5.45,0,0,1,6.24-5.36,5.45,5.45,0,0,1,5.41,6.19Zm-9.88-2.48,8.36.6.18-2.56c.18-2.53-1.39-4-3.9-4.14s-4.27,1-4.45,3.55Z" fill="#231f20"/><path d="M11.42,149.81a2.64,2.64,0,0,0,3-2.48,5.87,5.87,0,0,0-.22-2.47l1.39,0a6.38,6.38,0,0,1,.25,2.81A4.14,4.14,0,0,1,11,151.51,4,4,0,0,1,7.33,147a3.34,3.34,0,0,1,4-3.06,4.6,4.6,0,0,1,.9.21Zm-1.14-.26.54-3.95a1.66,1.66,0,0,0-2,1.57A2.07,2.07,0,0,0,10.28,149.55Z" fill="#231f20"/><path d="M17.81,136.63l-.06.33c-.24,1.26-.73,1.59-1.48,1.79a3.28,3.28,0,0,1,.62,2.69,2.33,2.33,0,0,1-2.84,2c-2.28-.44-2.3-3.4-2-5.27-1.33-.24-1.78.22-2,1.33a4,4,0,0,0,.26,2.29L9,141.69a5.37,5.37,0,0,1-.26-3c.38-2,1.5-2.69,4.22-2.16l1.83.35c1.16.22,1.58.2,1.72-.55l0-.2Zm-4.61,1.7c-.29,1.95,0,3.12,1.09,3.34a1.06,1.06,0,0,0,1.38-1,2.49,2.49,0,0,0-.57-2Z" fill="#231f20"/><path d="M18.73,132.81l-.13.55a1.9,1.9,0,0,1-2.46,1.6L5.77,132.55l.38-1.64,9.52,2.22c1.33.31,1.54.17,1.77-.84Z" fill="#231f20"/><path d="M10.82,123l3,.9,1.2-4,1.58.48-1.2,4,5,1.53-.51,1.69L8.73,124.24l2.07-6.83,1.58.48Z" fill="#231f20"/><path d="M23.39,117.34l-.19.54a1.9,1.9,0,0,1-2.62,1.33l-10.06-3.49.55-1.59,9.24,3.21c1.29.45,1.51.33,1.85-.65Z" fill="#231f20"/><path d="M19.63,115.06a4.12,4.12,0,1,1,3-7.65,4.12,4.12,0,1,1-3,7.65Zm.64-1.61c1.61.64,2.92.24,3.48-1.17S23.63,109.66,22,109s-2.94-.25-3.5,1.18S18.63,112.8,20.26,113.44Z" fill="#231f20"/><path d="M30.56,100.17l-.73,1.54-6-1,4.53,4.06-.73,1.54L19.14,105l.8-1.67,6.32,1.33-4.74-4.12.69-1.45,6.19,1.08-5-4.08.8-1.67Z" fill="#231f20"/><path d="M290.81,75.26,294.9,72,291,67.11l-4.1,3.29L285.79,69l9.1-7.32L296,63.08l-3.68,3,3.91,4.86,3.68-3L301,69.32l-9.1,7.32Z" fill="#231f20"/><path d="M293.07,78.31l6.66-4.83,1,1.38-6.66,4.83Zm8-5.8,1.46-1.06,1,1.38-1.46,1.06Z" fill="#231f20"/><path d="M293.47,81.7a2,2,0,0,1,2.33.15,1.23,1.23,0,0,1,.46-1.27,1.37,1.37,0,0,1,1.49.1A3.3,3.3,0,0,1,303.82,79a3.61,3.61,0,0,1,.65,2,4.24,4.24,0,0,1,1.43,1.35l.15.22-1,.47-.28-.42a7,7,0,0,0-.51-.62A3,3,0,0,1,303,83.65a3.16,3.16,0,0,1-4.56-.94,4.61,4.61,0,0,1-.49-1,.52.52,0,0,0-.52,0c-.35.23-.09.82.66,2.43.53,1.15,1.34,3.12-.11,4.09-1.18.79-2.94.28-4.43-1.94S292.52,82.33,293.47,81.7Zm2.74,1.52a1.62,1.62,0,0,0-1.82-.29c-.61.41-.6,1.41.23,2.66s1.83,1.69,2.38,1.32.35-1.25-.22-2.48C296.72,84.31,296.31,83.46,296.21,83.22Zm3.92-3.87a1.8,1.8,0,1,0,2,3,1.8,1.8,0,1,0-2-3Z" fill="#231f20"/><path d="M302.49,92.76l3.79-2.24c1.55-.92,1.92-1.7,1.23-2.87a2.12,2.12,0,0,0-1.8-1.18l-5.14,3L299.7,88l10.77-6.36.87,1.46L307,85.69a2.81,2.81,0,0,1,1.86,1.4c1.24,2.1.29,3.7-1.74,4.9l-3.79,2.24Z" fill="#231f20"/><path d="M308.29,95.07a2.64,2.64,0,0,0-1,3.77,5.87,5.87,0,0,0,1.6,1.9l-1.15.78a6.37,6.37,0,0,1-1.83-2.15,4.14,4.14,0,0,1,1.79-5.94,4,4,0,0,1,5.6,1.61,3.34,3.34,0,0,1-1.49,4.79,4.73,4.73,0,0,1-.85.35Zm1.08-.45,1.83,3.54a1.66,1.66,0,0,0,.76-2.46A2.07,2.07,0,0,0,309.38,94.63Z" fill="#231f20"/><path d="M315.85,104.24l-.25-.54a2.22,2.22,0,0,0-1.63-1.18l-5.21,2.4-.74-1.61,7.47-3.45.62,1.35-1,.62a3.53,3.53,0,0,1,2.39,1.75l.11.24Z" fill="#231f20"/><path d="M311.83,111.83l11-4,1.5,4.07a5.84,5.84,0,0,1-11,4Zm10-1.8L314,112.92l.89,2.41c.87,2.38,2.89,3,5.26,2.17s3.47-2.68,2.6-5.06Z" fill="#231f20"/><path d="M319.85,122.79a2.64,2.64,0,0,0-1.73,3.5,5.88,5.88,0,0,0,1.21,2.17L318,129a6.39,6.39,0,0,1-1.39-2.46,4.14,4.14,0,0,1,2.89-5.5,4,4,0,0,1,5.2,2.64,3.34,3.34,0,0,1-2.37,4.42,4.72,4.72,0,0,1-.9.18Zm1.15-.23,1.13,3.83a1.66,1.66,0,0,0,1.21-2.27A2.07,2.07,0,0,0,321,122.55Z" fill="#231f20"/><path d="M319.42,137.41l-.08-.33c-.3-1.25,0-1.75.62-2.24a3.28,3.28,0,0,1-1.67-2.19,2.33,2.33,0,0,1,1.79-3c2.26-.53,3.49,2.16,4,4,1.31-.33,1.53-.93,1.27-2a4,4,0,0,0-1.17-2l1.29-.51a5.37,5.37,0,0,1,1.46,2.6c.46,1.95-.27,3.06-3,3.7l-1.82.43c-1.15.27-1.52.46-1.34,1.21l0,.19Zm3.51-3.44c-.54-1.9-1.26-2.86-2.36-2.6a1.06,1.06,0,0,0-.86,1.46,2.48,2.48,0,0,0,1.34,1.59Z" fill="#231f20"/><path d="M320.15,141.26l-.11-.56a1.9,1.9,0,0,1,1.59-2.47l10.45-2.05.33,1.65-9.59,1.89c-1.34.26-1.47.48-1.27,1.49Z" fill="#231f20"/><path d="M326.93,145c3.66-.46,6.33,1.68,6.75,5a8,8,0,0,1-.27,3.33l-1.68,0a8.32,8.32,0,0,0,.31-3.15c-.32-2.52-2.38-3.6-4.87-3.29s-4.22,1.87-3.9,4.42a8.3,8.3,0,0,0,1.06,2.95l-1.63.39a8.37,8.37,0,0,1-1.07-3.15C321.21,148.2,323.28,145.47,326.93,145Z" fill="#231f20"/><path d="M326.41,155.19a4.12,4.12,0,1,1-4,4.37A4,4,0,0,1,326.41,155.19Zm.11,1.73c-1.73.11-2.74,1-2.64,2.54s1.22,2.31,2.95,2.2,2.76-1,2.66-2.56S328.27,156.81,326.52,156.92Z" fill="#231f20"/><path d="M322.81,175.93l4.69.08c1.53,0,2.24-.48,2.26-1.76a1.78,1.78,0,0,0-2-2l-4.89-.08,0-1.7,4.5.07c1.93,0,2.43-.64,2.45-1.78a2.18,2.18,0,0,0-.9-2l-6-.1,0-1.7,8.22.13,0,1.35-.79.14a3.31,3.31,0,0,1,.91,2.35,2.92,2.92,0,0,1-1.56,2.68,3.08,3.08,0,0,1,1.47,2.93c0,2.13-1.35,3.18-3.74,3.14l-4.7-.08Z" fill="#231f20"/><path d="M323.3,181.08l-4.83-.42.14-1.68L330.83,180l-.12,1.38-.93.09a3.1,3.1,0,0,1,.87,2.59c-.21,2.41-2.34,3.6-4.6,3.4s-4.14-1.65-3.93-4.16A3.39,3.39,0,0,1,323.3,181.08Zm3.28.2c-1.86-.16-2.88.79-3,2s1,2.31,2.6,2.45,2.88-.57,3-2S328.41,181.44,326.58,181.28Z" fill="#231f20"/><path d="M321.24,191.15l.07-.56a1.9,1.9,0,0,1,2.29-1.84l10.55,1.36-.22,1.67-9.69-1.25c-1.36-.18-1.55,0-1.68,1Z" fill="#231f20"/><path d="M324.94,194.31a2.64,2.64,0,0,0-3.1,2.38,5.89,5.89,0,0,0,.14,2.48l-1.39-.07a6.39,6.39,0,0,1-.16-2.82,4.14,4.14,0,0,1,5-3.67,4,4,0,0,1,3.5,4.66,3.34,3.34,0,0,1-4.07,2.93A4.66,4.66,0,0,1,324,200Zm1.13.29-.67,3.93a1.66,1.66,0,0,0,2.08-1.51A2.07,2.07,0,0,0,326.07,194.6Z" fill="#231f20"/><path d="M318.7,204.78l.3-1.37a2,2,0,0,1,2.45-1.69l4.89,1.07.28-1.3,1.29.43-.25,1.16,1.92.42-.2,1.7-2.09-.46-.43,2-1.32-.29.43-2-4-.88c-1.42-.31-1.54-.23-1.85,1.18l-.1.44Z" fill="#231f20"/><path d="M318.52,206.19l8,2-.41,1.65-8-2Zm9.58,2.39,1.75.44-.41,1.65-1.75-.44Z" fill="#231f20"/><path d="M321.74,210.37a4.12,4.12,0,1,1-5.25,2.73A4,4,0,0,1,321.74,210.37Zm-.49,1.67c-1.66-.49-2.93,0-3.36,1.48s.35,2.59,2,3.08,2.94,0,3.38-1.5S322.93,212.53,321.25,212Z" fill="#231f20"/><path d="M313.14,223.71l4.24,1.52c1.57.56,2.46.3,2.94-1a2.24,2.24,0,0,0-.22-2.21l-5.62-2,.58-1.6,7.74,2.78-.49,1.35-.73-.14a3.61,3.61,0,0,1,0,2.57c-.83,2.32-2.6,2.7-4.82,1.9l-4.24-1.52Z" fill="#231f20"/><path d="M307.57,236.74l5.14-.42,1-2.14-4.08-1.88.76-1.65L321,235.54l-1.66,3.59c-1,2.15-2.43,3.31-4.78,2.23a3.57,3.57,0,0,1-2.14-3.29l-5.63.38Zm11.34-.16-3.68-1.7-.92,2a1.88,1.88,0,0,0,1,2.77c1.14.52,2.1.22,2.8-1.3Z" fill="#231f20"/><path d="M303,245.22l.16-.29c.6-1.13,1.17-1.31,1.94-1.27a3.28,3.28,0,0,1,.2-2.75,2.32,2.32,0,0,1,3.3-1c2,1.09,1.2,3.93.33,5.62,1.2.62,1.76.31,2.29-.69a4,4,0,0,0,.43-2.26l1.3.47a5.36,5.36,0,0,1-.63,2.92c-.94,1.77-2.23,2.12-4.67.82l-1.65-.88c-1-.56-1.45-.66-1.81,0l-.09.18Zm4.9-.26c.85-1.78.94-3-.06-3.51a1.06,1.06,0,0,0-1.6.53,2.48,2.48,0,0,0,0,2.07Z" fill="#231f20"/><path d="M300.26,249.76l.71-1.21a2,2,0,0,1,2.85-.83l4.31,2.54.68-1.15,1.09.82-.6,1,1.7,1-.72,1.55-1.84-1.08-1,1.75-1.17-.69,1-1.75-3.55-2.09c-1.25-.74-1.39-.7-2.12.55l-.23.39Z" fill="#231f20"/><path d="M302.3,254.27a2.64,2.64,0,0,0-3.79,1,5.89,5.89,0,0,0-.86,2.33l-1.25-.62a6.37,6.37,0,0,1,1-2.65,4.14,4.14,0,0,1,6.06-1.37,4,4,0,0,1,1.36,5.67,3.34,3.34,0,0,1-4.9,1.07,4.67,4.67,0,0,1-.72-.57Zm.92.72L301,258.34a1.66,1.66,0,0,0,2.51-.55A2.07,2.07,0,0,0,303.23,255Z" fill="#231f20"/><path d="M90,315l5.5-10.3,1.57.84-5.5,10.3Z" fill="#231f20"/><path d="M98.86,319.44l2-4.06c.72-1.5.55-2.42-.72-3a2.24,2.24,0,0,0-2.22,0l-2.59,5.38L93.75,317l3.57-7.41,1.29.62-.21.71a3.61,3.61,0,0,1,2.55.23c2.22,1.07,2.42,2.87,1.4,5l-2,4.06Z" fill="#231f20"/><path d="M103.63,317.1c.91-2.19,2.89-3.42,5.38-2.38a5,5,0,0,1,2.12,1.46l-.78,1.3a4.3,4.3,0,0,0-1.75-1.34c-1.52-.63-2.7,0-3.37,1.63s-.32,2.94,1.21,3.57a4.26,4.26,0,0,0,2.19.3l-.35,1.37a4.25,4.25,0,0,1-2.53-.39C103.25,321.58,102.75,319.22,103.63,317.1Z" fill="#231f20"/><path d="M116,319.15l-.56-.21a2.22,2.22,0,0,0-2,.32l-2,5.38-1.66-.61,2.84-7.72,1.39.51-.28,1.16a3.53,3.53,0,0,1,2.92-.45l.25.09Z" fill="#231f20"/><path d="M117.43,322.58a2.64,2.64,0,0,0,1.92,3.4,5.9,5.9,0,0,0,2.47.21l-.26,1.37a6.37,6.37,0,0,1-2.81-.24,4.14,4.14,0,0,1-2.92-5.47,4,4,0,0,1,5.1-2.82,3.34,3.34,0,0,1,2.33,4.44,4.69,4.69,0,0,1-.36.85Zm.45-1.08,3.8,1.21a1.66,1.66,0,0,0-1.2-2.27A2.07,2.07,0,0,0,117.88,321.5Z" fill="#231f20"/><path d="M130.09,330.5l-.32-.08c-1.24-.33-1.54-.83-1.69-1.6a3.28,3.28,0,0,1-2.72.44,2.33,2.33,0,0,1-1.78-3c.59-2.24,3.54-2.07,5.39-1.62.33-1.31-.1-1.79-1.2-2.07a4,4,0,0,0-2.3.1l.15-1.37a5.36,5.36,0,0,1,3-.06c1.94.51,2.58,1.68,1.88,4.36l-.47,1.81c-.3,1.15-.3,1.56.44,1.75l.19.05Zm-1.39-4.71c-1.93-.42-3.11-.23-3.4.87a1.06,1.06,0,0,0,.88,1.44,2.49,2.49,0,0,0,2-.43Z" fill="#231f20"/><path d="M131.45,330.1l.5-1.48a4.4,4.4,0,0,0,2.33,1.34c1,.21,1.56-.1,1.67-.65.17-.78-.62-1.26-1.3-1.6-1-.54-2.3-1.22-2-2.82.25-1.19,1.29-2.3,3.53-1.83a4.83,4.83,0,0,1,2.18,1l-.49,1.43a3.23,3.23,0,0,0-1.89-1.2c-.85-.18-1.55,0-1.7.71s.49,1.08,1.59,1.67c.84.45,2.11,1.23,1.75,2.91-.22,1-1,2.27-3.61,1.73A5.27,5.27,0,0,1,131.45,330.1Z" fill="#231f20"/><path d="M140.87,328.48a2.64,2.64,0,0,0,2.41,3.07,5.86,5.86,0,0,0,2.48-.16l-.05,1.39a6.37,6.37,0,0,1-2.82.19,4.14,4.14,0,0,1-3.72-5,4,4,0,0,1,4.63-3.55,3.34,3.34,0,0,1,3,4,4.78,4.78,0,0,1-.23.89Zm.28-1.14,3.94.63a1.66,1.66,0,0,0-1.53-2.07A2.07,2.07,0,0,0,141.16,327.34Z" fill="#231f20"/><path d="M153.68,334.14l0-.84a3.31,3.31,0,0,1-2.43.76c-2.27-.23-3.63-2.28-3.38-4.64s1.85-4.12,4.25-3.88a3.16,3.16,0,0,1,2.22,1.1l.51-5,1.68.17-1.27,12.45Zm-4.13-4.55c-.16,1.58.54,2.87,1.92,3s2.42-.66,2.61-2.52-.79-2.95-2-3.08S149.71,328,149.54,329.59Z" fill="#231f20"/><path d="M161.84,334.69,162,323l4.34.07a5.84,5.84,0,0,1-.19,11.67Zm1.93-10-.14,8.37,2.57,0c2.54,0,3.88-1.6,3.92-4.12s-1.25-4.21-3.78-4.25Z" fill="#231f20"/><path d="M175,330.71a2.64,2.64,0,0,0,3,2.5,5.89,5.89,0,0,0,2.39-.68l.24,1.37a6.37,6.37,0,0,1-2.72.78,4.14,4.14,0,0,1-4.67-4.08,4,4,0,0,1,3.78-4.44,3.34,3.34,0,0,1,3.75,3.33,4.66,4.66,0,0,1,0,.92Zm0-1.17,4-.21a1.66,1.66,0,0,0-1.93-1.7A2.07,2.07,0,0,0,175,329.54Z" fill="#231f20"/><path d="M189.64,333.66l-.33,0c-1.28.13-1.74-.24-2.14-.9a3.28,3.28,0,0,1-2.39,1.37,2.32,2.32,0,0,1-2.71-2.15c-.24-2.3,2.58-3.19,4.47-3.42-.16-1.34-.72-1.63-1.85-1.52a4,4,0,0,0-2.12.91l-.34-1.34a5.36,5.36,0,0,1,2.77-1.11c2-.21,3,.66,3.29,3.41l.19,1.86c.12,1.18.26,1.57,1,1.49l.2,0Zm-3-3.92c-1.95.29-3,.88-2.87,2a1.06,1.06,0,0,0,1.33,1,2.48,2.48,0,0,0,1.74-1.12Z" fill="#231f20"/><path d="M193.92,333l-.56.08a1.9,1.9,0,0,1-2.39-1.71l-1.52-10.53,1.67-.24,1.39,9.67c.2,1.35.4,1.49,1.42,1.35Z" fill="#231f20"/><path d="M204.75,330.8l-1.94.42-6.75-10.48,1.81-.39,5.46,8.54,1.39-10,1.81-.39Z" fill="#231f20"/><path d="M207.83,319.9l-.46-1.74,1.64-.44.46,1.74Zm2.54,9.54-2.11-7.94,1.64-.44L212,329Z" fill="#231f20"/><path d="M213.58,328.06l-.27-1.54a4.39,4.39,0,0,0,2.68.06c1-.3,1.32-.83,1.15-1.38-.23-.77-1.15-.8-1.91-.78-1.18,0-2.6,0-3.08-1.52-.35-1.17,0-2.64,2.21-3.3a4.83,4.83,0,0,1,2.42-.14l.26,1.49a3.23,3.23,0,0,0-2.24-.14c-.83.25-1.36.74-1.15,1.45s.95.71,2.2.69c1,0,2.44.06,2.94,1.71.3,1,.18,2.49-2.33,3.25A5.27,5.27,0,0,1,213.58,328.06Z" fill="#231f20"/><path d="M217.87,316.91l-.58-1.71,1.61-.55.58,1.71Zm3.19,9.35-2.66-7.79,1.61-.55,2.66,7.79Z" fill="#231f20"/><path d="M226.12,323.59l.18.83-1.43.56-4.53-11.66,1.59-.62,1.81,4.67a3.12,3.12,0,0,1,1.86-1.67c2.25-.88,4.29.5,5.11,2.61s.1,4.54-2,5.37A3.34,3.34,0,0,1,226.12,323.59Zm-1.25-3c.68,1.74,2,2.24,3.13,1.79s1.66-2,1.08-3.43-1.81-2.32-3.12-1.81S224.21,318.86,224.87,320.57Z" fill="#231f20"/><path d="M229.88,312.33l-.72-1.65,1.56-.68.72,1.65Zm4,9.05-3.29-7.54,1.56-.68,3.29,7.54Z" fill="#231f20"/><path d="M239.88,318.83l-.51.24a1.9,1.9,0,0,1-2.78-.95l-4.5-9.65,1.53-.71,4.13,8.86c.58,1.24.81,1.31,1.75.88Z" fill="#231f20"/><path d="M236.84,309.13l-.8-1.61,1.52-.76.8,1.61Zm4.4,8.84-3.66-7.36,1.52-.76,3.66,7.36Z" fill="#231f20"/><path d="M248.51,314.38l-1.24.66a2,2,0,0,1-2.87-.77L242,309.86l-1.18.63-.5-1.26,1-.56-.93-1.74,1.42-1,1,1.88,1.79-1,.64,1.19-1.79,1,1.94,3.63c.69,1.28.82,1.32,2.1.64l.4-.21Z" fill="#231f20"/><path d="M254.17,315.59l-1.55.92-.68-4.8-6.92-5,1.62-1,5.06,3.77-1-6.16,1.62-1Z" fill="#231f20"/><path d="M135.87,210.09V198.42h1.79v11.67Z" fill="#fff"/><path d="M145.49,210.09v-4.5c0-1.67-.55-2.42-2-2.42a2.24,2.24,0,0,0-2,1v6h-1.7v-8.22h1.43l.12.73a3.61,3.61,0,0,1,2.4-.9c2.47,0,3.42,1.53,3.42,3.89v4.5Z" fill="#fff"/><path d="M148.63,206c0-2.37,1.35-4.27,4.05-4.27a5,5,0,0,1,2.52.53l-.22,1.5a4.31,4.31,0,0,0-2.13-.57c-1.65,0-2.48,1.07-2.48,2.8s.83,2.83,2.48,2.83a4.25,4.25,0,0,0,2.13-.57l.2,1.4a4.25,4.25,0,0,1-2.49.62C150,210.26,148.63,208.28,148.63,206Z" fill="#fff"/><path d="M160.77,203.37h-.6a2.22,2.22,0,0,0-1.75,1v5.74h-1.77v-8.22h1.48l.13,1.18a3.53,3.53,0,0,1,2.58-1.43h.27Z" fill="#fff"/><path d="M163.21,206.14a2.64,2.64,0,0,0,2.87,2.65,5.87,5.87,0,0,0,2.42-.55l.17,1.38a6.37,6.37,0,0,1-2.75.63,4.14,4.14,0,0,1-4.45-4.32,4,4,0,0,1,4-4.24,3.34,3.34,0,0,1,3.57,3.52,4.63,4.63,0,0,1-.08.92Zm.1-1.17h4a1.66,1.66,0,0,0-1.83-1.8A2.07,2.07,0,0,0,163.31,205Z" fill="#fff"/><path d="M177.29,210.26H177c-1.28,0-1.7-.42-2-1.12a3.28,3.28,0,0,1-2.52,1.12,2.32,2.32,0,0,1-2.47-2.42c0-2.32,2.9-2.9,4.8-2.93,0-1.35-.55-1.7-1.68-1.7a4,4,0,0,0-2.2.68l-.2-1.37a5.36,5.36,0,0,1,2.87-.82c2,0,2.92,1,2.92,3.74v1.87c0,1.18.1,1.58.87,1.58h.2Zm-2.54-4.2c-2,.08-3.07.57-3.07,1.7,0,.82.45,1.17,1.22,1.17a2.48,2.48,0,0,0,1.85-.93Z" fill="#fff"/><path d="M178.21,209.58l.18-1.55a4.39,4.39,0,0,0,2.55.83c1,0,1.5-.42,1.5-1,0-.8-.87-1.1-1.6-1.3-1.13-.32-2.5-.72-2.5-2.35,0-1.22.78-2.52,3.07-2.52a4.83,4.83,0,0,1,2.35.57l-.18,1.5a3.23,3.23,0,0,0-2.1-.78c-.87,0-1.52.32-1.52,1.05s.7,1,1.9,1.3c.92.27,2.32.77,2.32,2.48,0,1.05-.55,2.44-3.17,2.44A5.27,5.27,0,0,1,178.21,209.58Z" fill="#fff"/><path d="M186.92,206.14a2.64,2.64,0,0,0,2.87,2.65,5.87,5.87,0,0,0,2.42-.55l.17,1.38a6.37,6.37,0,0,1-2.75.63,4.14,4.14,0,0,1-4.45-4.32,4,4,0,0,1,4-4.24,3.34,3.34,0,0,1,3.57,3.52,4.63,4.63,0,0,1-.08.92ZM187,205h4a1.66,1.66,0,0,0-1.83-1.8A2.07,2.07,0,0,0,187,205Z" fill="#fff"/><path d="M200.06,210.09l-.13-.83a3.3,3.3,0,0,1-2.33,1c-2.28,0-3.84-1.9-3.84-4.27s1.42-4.29,3.84-4.29a3.16,3.16,0,0,1,2.32.87v-5h1.68v12.51Zm-4.57-4.1c0,1.58.83,2.8,2.22,2.8s2.33-.9,2.33-2.77-1.08-2.85-2.33-2.85S195.49,204.36,195.49,206Z" fill="#fff"/><path d="M132.94,230.11l-1.07-8.47-3.1,5.82-3.15-5.82-1.07,8.47H122.7l1.58-11.67h1.48l3,5.62,3-5.62h1.5l1.58,11.67Z" fill="#fff"/><path d="M143.25,230.28h-.33c-1.28,0-1.7-.42-2-1.12a3.28,3.28,0,0,1-2.52,1.12,2.32,2.32,0,0,1-2.47-2.42c0-2.32,2.9-2.9,4.8-2.93,0-1.35-.55-1.7-1.68-1.7a4,4,0,0,0-2.2.68l-.2-1.37a5.36,5.36,0,0,1,2.87-.82c2,0,2.92,1,2.92,3.74v1.87c0,1.18.1,1.58.87,1.58h.2Zm-2.54-4.2c-2,.08-3.07.57-3.07,1.7,0,.82.45,1.17,1.22,1.17a2.48,2.48,0,0,0,1.85-.93Z" fill="#fff"/><path d="M148.74,223.39h-.6a2.22,2.22,0,0,0-1.75,1v5.74h-1.77v-8.22h1.48l.13,1.18a3.53,3.53,0,0,1,2.58-1.43h.27Z" fill="#fff"/><path d="M150.09,230.11V217.6h1.7v7.87l2.88-3.59h2l-3.27,3.84,3.32,4.39h-2l-2.93-4v4Z" fill="#fff"/><path d="M158.71,226.16a2.64,2.64,0,0,0,2.87,2.65,5.87,5.87,0,0,0,2.42-.55l.17,1.38a6.37,6.37,0,0,1-2.75.63A4.14,4.14,0,0,1,157,226a4,4,0,0,1,4-4.24,3.34,3.34,0,0,1,3.57,3.52,4.63,4.63,0,0,1-.08.92Zm.1-1.17h4a1.66,1.66,0,0,0-1.83-1.8A2.07,2.07,0,0,0,158.81,225Z" fill="#fff"/><path d="M170.22,230.28h-1.4a2,2,0,0,1-2.17-2v-5h-1.33l.15-1.35h1.18v-2l1.7-.17v2.13h2v1.35h-2v4.12c0,1.45.1,1.55,1.55,1.55h.45Z" fill="#fff"/><path d="M175.33,229.56l.22-2.05a6,6,0,0,0,3.65,1.18c1.37,0,2.55-.42,2.55-1.62s-1.33-1.73-2.92-2.25c-1.83-.6-3.69-1.18-3.69-3.2,0-1.48,1-3.42,4.2-3.42A8.15,8.15,0,0,1,183,219l-.18,1.85a7.4,7.4,0,0,0-3.37-1.05c-1.1,0-2.45.42-2.45,1.55s1.1,1.45,2.47,1.87c2,.6,4.2,1.23,4.2,3.79,0,1.27-.53,3.3-4.54,3.3A8.37,8.37,0,0,1,175.33,229.56Z" fill="#fff"/><path d="M190.61,230.11v-4.4c0-1.8-.48-2.52-1.85-2.52a2.12,2.12,0,0,0-1.93,1v6h-1.7V217.6h1.7v5a2.81,2.81,0,0,1,2.15-.88c2.43,0,3.33,1.63,3.33,4v4.4Z" fill="#fff"/><path d="M201,230.28h-.33c-1.28,0-1.7-.42-2-1.12a3.28,3.28,0,0,1-2.52,1.12,2.32,2.32,0,0,1-2.47-2.42c0-2.32,2.9-2.9,4.8-2.93,0-1.35-.55-1.7-1.68-1.7a4,4,0,0,0-2.2.68l-.2-1.37a5.36,5.36,0,0,1,2.87-.82c2,0,2.92,1,2.92,3.74v1.87c0,1.18.1,1.58.87,1.58h.2Zm-2.54-4.2c-2,.08-3.07.57-3.07,1.7,0,.82.45,1.17,1.22,1.17a2.48,2.48,0,0,0,1.85-.93Z" fill="#fff"/><path d="M206.46,223.39h-.6a2.22,2.22,0,0,0-1.75,1v5.74h-1.77v-8.22h1.48l.13,1.18a3.53,3.53,0,0,1,2.58-1.43h.27Z" fill="#fff"/><path d="M208.89,226.16a2.64,2.64,0,0,0,2.87,2.65,5.87,5.87,0,0,0,2.42-.55l.17,1.38a6.37,6.37,0,0,1-2.75.63,4.14,4.14,0,0,1-4.45-4.32,4,4,0,0,1,4-4.24,3.34,3.34,0,0,1,3.57,3.52,4.63,4.63,0,0,1-.08.92ZM209,225h4a1.66,1.66,0,0,0-1.83-1.8A2.07,2.07,0,0,0,209,225Z" fill="#fff"/></svg>