<svg xmlns="http://www.w3.org/2000/svg" width="138.55" height="161.93" viewBox="0 0 138.55 161.93"><title>stopwatch-without-NIAD</title><path d="M19.46,20.74H17L13.54,10.46,10.13,20.74H7.47L3.13,5.34H6.06L9.14,16.27,12.57,5.34h2L18.09,16,21,5.34H24Z" fill="#b50016"/><path d="M25.26,8.06V5.34H28V8.06Zm0,12.67v-11H28v11Z" fill="#b50016"/><path d="M36.09,21h-2a2.75,2.75,0,0,1-2.95-2.88V12H29.62l.24-2.25h1.32V7.32L33.91,7V9.74h2.42V12H33.91v5c0,1.67.13,1.76,1.67,1.76h.75Z" fill="#b50016"/><path d="M45.06,20.74V14.82c0-2-.64-3-2.18-3a2.55,2.55,0,0,0-2.07.95v8H38.09V4.24h2.73v6.07a4.36,4.36,0,0,1,2.29-.75c3.43,0,4.69,2.16,4.69,5.26v5.92Z" fill="#b50016"/><path d="M49.57,15.26a5.57,5.57,0,1,1,11.13,0,5.57,5.57,0,1,1-11.13,0Zm2.79,0c0,2,1,3.45,2.77,3.45s2.77-1.41,2.77-3.45-1-3.46-2.77-3.46S52.37,13.21,52.37,15.26Z" fill="#b50016"/><path d="M69.64,20.74l0-.66a4.33,4.33,0,0,1-2.44.88c-3.43,0-4.67-2.2-4.67-5.3V9.74h2.73v5.92c0,2,.64,3,2.18,3a2.56,2.56,0,0,0,2.07-.92v-8h2.73v11Z" fill="#b50016"/><path d="M80.29,21h-2a2.75,2.75,0,0,1-2.95-2.88V12H73.82l.24-2.25h1.32V7.32L78.11,7V9.74h2.42V12H78.11v5c0,1.67.13,1.76,1.67,1.76h.75Z" fill="#b50016"/><path d="M97.53,20.74l-7-10.56V20.74H87.68V5.34h2.77L97,15.28V5.34h2.82v15.4Z" fill="#b50016"/><path d="M103.23,20.74V5.34H106v15.4Z" fill="#b50016"/><path d="M118.5,20.74,117.18,17h-5.13l-1.32,3.72h-2.93l5.48-15.4h2.66l5.48,15.4Zm-3.89-11L113,14.29h3.19Z" fill="#b50016"/><path d="M123.18,20.74V5.34h5.76c4.4,0,7.59,2.86,7.59,7.7s-3.19,7.7-7.59,7.7ZM126,8V18h2.95c3,0,4.51-1.92,4.51-5s-1.52-5-4.51-5Z" fill="#b50016"/><path d="M71.23,76.72l-.66,0,.31,35.58-8.2-34.55a35.49,35.49,0,1,0,8.55-1Z" fill="#b50016"/><path d="M70.88,73.77a38.46,38.46,0,1,1-38.46,38.46A38.5,38.5,0,0,1,70.88,73.77m0-8.24a46.7,46.7,0,1,0,46.7,46.7,46.7,46.7,0,0,0-46.7-46.7Z"/><circle cx="70.88" cy="112.23" r="3.24"/><polygon points="64.44 84.09 72.91 111.85 68.89 112.77 64.44 84.09"/><rect x="69.56" y="76.2" width="2" height="9"/><rect x="69.56" y="139.2" width="2" height="9"/><rect x="96.56" y="111.2" width="9" height="2"/><rect x="35.56" y="111.2" width="9" height="2"/><rect x="42.1" y="92.52" width="0.82" height="5.54" transform="translate(-61.16 83.43) rotate(-59.43)"/><rect x="98.94" y="126.42" width="0.8" height="5.28" transform="translate(-62.31 148.95) rotate(-59.43)"/><rect x="84.95" y="83.37" width="5.54" height="0.82" transform="translate(-29.01 116.79) rotate(-59.48)"/><rect x="51.31" y="140.21" width="5.28" height="0.8" transform="translate(-94.56 115.55) rotate(-59.43)"/><rect x="96.82" y="95.51" width="5.54" height="0.82" transform="translate(-34.39 61.76) rotate(-29.62)"/><rect x="39.39" y="128.03" width="5.28" height="0.8" transform="translate(-58.02 37.6) rotate(-29.65)"/><rect x="86.95" y="137.94" width="0.82" height="5.54" transform="translate(-58.86 62.92) rotate(-30.15)"/><rect x="53.9" y="80.82" width="0.8" height="5.28" transform="translate(-34.57 38.57) rotate(-30.15)"/><rect x="64.03" y="49.44" width="14.41" height="5.08"/><rect x="67.64" y="54.52" width="6.48" height="16.88"/><path d="M70.88,39A10.48,10.48,0,1,1,60.4,49.44,10.49,10.49,0,0,1,70.88,39m0-4.94A15.42,15.42,0,1,0,86.31,49.44,15.42,15.42,0,0,0,70.88,34Z"/><rect x="28.4" y="59.11" width="13.32" height="16.47" transform="translate(-33.94 35.66) rotate(-37.84)"/><rect x="99.71" y="59.11" width="13.32" height="16.47" transform="translate(149.06 185.77) rotate(-142.16)"/></svg>